<?xml version="1.0" encoding="UTF-8"?>
<svg id="Layer_2" xmlns="http://www.w3.org/2000/svg" version="1.1" viewBox="0 0 138.2 93.4">
  <!-- Generator: Adobe Illustrator 30.0.0, SVG Export Plug-In . SVG Version: 2.1.1 Build 123)  -->
  <defs>
    <style>
      .st0 {
        fill: #231f20;
      }
    </style>
  </defs>
  <g>
    <g>
      <g>
        <path class="st0" d="M31.8,47.2c.6.7,1,1.4,1.7,2,.7.6,1.3,1.1,2,1.7,1.3,1.2,2.2,2.7,3.2,4.1,2,2.7,4.8,4.4,8,5.1.6.1.8-.8.2-.9-1.8-.4-3.5-1-5-2.1-1.3-.9-2.3-2.2-3.3-3.5-.9-1.2-1.8-2.5-2.9-3.5-1.2-1.1-2.8-1.8-4-2.9,0,0,0,0,0,0h0Z"/>
        <path class="st0" d="M26.5,33.8c-.1.4,0,.8.2,1.2.2.4.9.7,1,1.1.1.3.2-.8,0-1-.2-.2-.2-.2-.5-.4-.3-.2-.3-.5-.2-.8,0,0-.6-.1-.6,0h0Z"/>
        <path class="st0" d="M27.4,35.4c1.5,3,2.1,6.2,3.3,9.3.5,1.4,1.2,2.7,2.1,3.8,1.1,1.4,2.5,2.2,3.9,3.2.1,0,.2,0,.2-.2-.2-.5-.8-1.1-1.2-1.5-.6-.6-1.2-1.2-1.8-1.8-1.2-1.2-2.1-2.8-2.7-4.4-1.1-2.9-1.7-6.1-3.3-8.8-.2-.3-.6,0-.4.3h0Z"/>
        <path class="st0" d="M59.3,48.4c-.3,1.2-.9,2.2-1.4,3.3-.5,1.2-.5,2.3-.5,3.6.2,3,.6,5.7.2,8.7-.8,5.4-3.5,11.7-2.3,17.2,0,.5.7.1.6-.3-.6-2.9,0-6.5.8-9.3.6-2.6,1.3-5.1,1.7-7.7.4-2.6.2-5.1,0-7.7-.1-1.4-.2-2.8.2-4.2.3-1.2.7-2.3,1-3.4,0-.2-.2-.2-.3,0h0Z"/>
        <path class="st0" d="M43.8,52.1c.5.8,1.1,1.4,1.4,2.3.4.9.7,1.9.9,2.8.5,2,.9,4,1.2,6,.4,2.4.4,4.9.8,7.4.2,1.1.5,2.2.9,3.2.4.9.8,2,1.5,2.6,0,0,.3,0,.3-.1-.1-.9-.7-1.8-1.1-2.7-.5-1.2-.6-2.4-.8-3.6-.4-2.6-.6-5.2-1-7.7-.3-2-.8-4.1-1.4-6-.5-1.5-1.3-3.3-2.7-4.2,0,0-.2,0-.1.1h0Z"/>
        <path class="st0" d="M54.4,85.9c0,.7,0,1.2.2,1.8,0,.6.8,1,1.2,1.3.2,0,.3,0,.5,0,0,0,0,0,0-.2,0-.2,0-.3-.2-.4-.5-.3-.7-.6-1.1-1-.3-.4-.3-1.1-.4-1.5,0-.1-.3-.2-.3,0h0Z"/>
        <path class="st0" d="M56.3,89c1-.4.5-3.1.5-3.9-.2-1.9-.7-3.8-1.2-5.6,0-.2-.3-.1-.3,0,0,1.7.5,3.5.7,5.2,0,.8,0,1.7,0,2.5,0,.6,0,.9-.4.8-.4-.1.7,1,.4.9h.2c0,.1,0,.1,0,.1Z"/>
        <path class="st0" d="M54.3,86c-.2.9-.4,2.6-.2,3.5.2,1.1.6,2.4.6,3.6,0,.5.9.3.9-.2,0-.9-.2-1.8-.5-2.7-.3-1.1-.5-2.2-.6-3.4,0,0,0,0,0,0v-.9c-.1,0-.1,0-.1,0Z"/>
        <path class="st0" d="M47.4,93.2c1.2-.2,1.1-1.5,1.5-2.4.4-1,2.1-1.8,1.9-3,0-.2-.2-.2-.3-.1-.5.2-.7.7-1,1.1-.3.4-.7.8-1,1.2-.3.4-.5.9-.6,1.3-.2.6,0,1.2-.7,1.6-.2,0,0,.3.1.3h0Z"/>
        <path class="st0" d="M50.8,88.5c1.1-2.1,1.2-4.4,1.1-6.8,0-1.2-.1-2.4-.3-3.6-.1-.6-.2-1.2-.5-1.7-.3-.7-.8-1.3-1-2.1-.1-.4-.7-.2-.6.2.3,1.1.8,2.2,1.1,3.3.3,1.2.4,2.4.5,3.6.1,2.3-.2,4.9-1.1,6.8-.1.2.5.5.6.2h.2Z"/>
        <path class="st0" d="M59.7,93.4c.9-.9.5-2.3,1-3.3.3-.5.8-1.1.9-1.6,0-.6,0-1.2.3-1.9,0-.1-.6-.7-.6-.6-.2.6-.4.9-.4,1.2,0,.8-.3,1.4-.7,2.2-.7,1.2-.4,2.9-1.1,4,0,0,.5,0,.6,0h0Z"/>
        <path class="st0" d="M61.2,87.2c.5,0,.7-.8.8-1.3.1-.7.1-1.4,0-2.1,0-.1-.2-.2-.3-.2-.2,0-.2,0-.3,0-.1,0-.2.2-.2.3,0,.6.3,1.2.2,1.8,0,.4-.3.8-.2,1.2,0,0,0,0,.1,0h0Z"/>
        <path class="st0" d="M56.5,69.7c0,2.6,1.8,5.1,2.6,7.5.5,1.4.9,2.9,1.3,4.4.2.7.3,1.5.6,2.2.2.6.2,1.3.5,1.9,0,0,.2.1.3,0,.5-1,0-2.5-.3-3.6-.4-1.4-.8-2.8-1.4-4.1-1.2-2.8-2.7-5.5-3.5-8.3,0,0,0,0,0,0h0Z"/>
        <path class="st0" d="M66.7,89.1c.5-1.4.2-3.1-.2-4.5-.4-1.9-1-3.7-1.2-5.6-.4-3.2,0-6.4-1.4-9.4-.2-.5-.8.4-.5,1,1.3,2.9.7,5.5,1.2,8.6.2,1.6.8,3.1,1.3,4.6.3.8.5,1.7.6,2.5.2,1,0,1.9,0,2.9,0,.2.2.2.3,0h0Z"/>
        <path class="st0" d="M64.2,70.4c-.2-1.1-.2-1.7-.2-2.5,0-1.1.2-2.1.3-3.2.1-.9.2-1.8.2-2.7s0-1.1,0-1.6c0-.5.2-1.4.2-1.9,0-.2-.6-.3-.7-.1-.7.5-.5,1.8-.4,2.7,0,1.2,0,2.3-.1,3.5-.2,1.6-.8,4.4.2,6.1,0,0,.5-.3.5-.3h.3c0,0,0,0,0,0Z"/>
        <path class="st0" d="M64.8,86.3c0,.3,0,.7.2,1.1.1.5.2,1,.4,1.5.1.3.3.8.7.8.4,0,.9-.6.8-1.7,0-.3-.4-.5-.4-.1,0,.5-.3,1.5-.8.6-.2-.4-.4-1.1-.6-1.5,0-.2-.2-.5-.3-.6h0Z"/>
        <path class="st0" d="M66.6,93.1c0-1-.6-1.8-.9-2.7-.3-1.1-.2-2.3-.7-3.4-.1-.2-.2-.9-.2-.6-.2,1.2,0,2.8.3,3.8.2,1,.9,1.9,1,2.9,0,.2.3.2.3,0h.3c0,0,0,0,0,0Z"/>
        <path class="st0" d="M58.8,59.5h0c0-.1,0,0,0,0h0c0,.1,0,0,0,0h0Z"/>
        <path class="st0" d="M58.8,59.5c-.1-.2-.4.3-.2.2.1,0,.2,0,.4,0,.4,0,.8-.1,1.2-.2.8,0,1.6-.2,2.5-.3,1.8-.2,3.7,0,5.5,0,2,0,4,.2,5.9.5,3.6.5,7.2,1.3,10.9,1.4,3.7.1,7.8-.6,11.3-1.8.6-.2.3-1-.2-.9-2.2.3-4.3.9-6.4,1.1-2.2.3-4.3.3-6.5.1-4.3-.3-8.6-1.3-13-1.6-3.2-.2-6.4-.3-9.6.3-.5,0-2,.2-2.3.7-.2.4.1.6.5.5,0,0,0,0,0-.1h0Z"/>
        <path class="st0" d="M24.9,31.7c-.1.5.2,1,.5,1.3.3.5.7.9,1.3,1.1.4.2.7-.5.3-.7-.4-.2-.7-.5-1-.8-.3-.3-.4-.5-.5-1,0,0-.5,0-.5.1h0Z"/>
        <path class="st0" d="M11.4,31.2c.7-.3.9-.4,1.6-.4.9,0,1.8.3,2.7.5,1.8.2,3.7.2,5.4-.6.5-.2,0-1-.4-.7-1.9,1-3.9.9-5.9.5-1.5-.2-2.1-.5-3.6,0-.1,0-.9.6-.7.6l1,.3h0Z"/>
        <path class="st0" d="M20.5,30.8c.9,1.1,3.1,1.3,4.4,1.5.6,0,.7-1,0-1-1.5-.1-2.8-.2-3.7-1.3-.2-.3-.9.5-.7.8h0Z"/>
        <path class="st0" d="M14.2,8.9c.1-.7.2-1.3.8-1.7.6-.5,1.8-.7,2.5-.9.6-.2.2-1-.4-.9-1.9.3-4,1.7-3.2,3.8,0,0,0,0,0,0l.2-.3h0Z"/>
        <path class="st0" d="M4.9,22.3c.4-.6.5-1.3.8-1.9.4-.7,1-1.5,1.5-2.2.5-.8,1.1-1.5,1.8-2.2.6-.6,1.4-.9,1.8-1.7.2-.3-.2-.8-.5-.6-1.5.7-2.6,2.4-3.5,3.8-.6.8-.9,1.7-1.4,2.6-.3.6-.6.9-.8,1.4,0,0,0,.4,0,.5l.3.2h0Z"/>
        <path class="st0" d="M13.8,8.1c0,0-.1.1,0,.2,0,.6-.2,1-.6,1.4-.5.6-1.1.9-1.8,1.3-.5.3-.9.7-1.2,1.2-.4.6-.3,1.4-.5,2-.2.7,1,.8,1.2,0,.2-.7,0-1.2.4-1.8.3-.6,1.2-.9,1.7-1.4.6-.7,1.6-1.8,1.2-2.8,0-.1-.1-.2-.2-.2h-.1s0,0,0,0h0Z"/>
        <path class="st0" d="M12.4,17.1c.6-.4.7-1.2,1.1-1.7s1.1-.5,1.7-.3c.4.1.7.4,1.1.3,0,0,0,0,0-.1-.3-.9-2-1-2.8-.7-.9.4-.9,1.6-1.5,2.3-.1.1,0,.3.2.2h0Z"/>
        <path class="st0" d="M13.1,17.3c.3,0,.5.2.8.1.3,0,.6-.1.8-.2.5-.2.9-.7,1-1.2,0,0,0-.2,0-.3-.1-.1-.3-.1-.4,0s0,.2-.1.4c0,.2-.2.3-.3.5-.2.2-.6.4-.9.5-.3,0-.6.2-.9.2,0,0,0,0,0,0h0Z"/>
        <path class="st0" d="M11.9,17.4c.3.5.9.7,1.4.9.5.2,1.2.5,1.8.3,0,0,.1-.2,0-.2-.4-.2-1-.3-1.5-.4-.6-.2-1.1-.5-1.6-.6,0,0,0,0,0,0h0Z"/>
        <path class="st0" d="M15.5,17.7c.6-.2,1.1-.9,1-1.5,0,0-.1-.1-.2,0-.2.2-.3.4-.4.7-.1.3-.3.5-.5.8,0,0,0,.1,0,0h0Z"/>
        <path class="st0" d="M19.1,12.7c.5-.7.7-1.4,1.4-2,.8-.7,2-1,2.9-1.4,1.2-.6,2.4-1.2,3.7-1.7,1.4-.5,2.8-.5,4.3-.8.5,0,.4-.9-.1-.9-3,0-5.8,1.7-8.4,3-1.8.9-3.4,1.5-3.7,3.7,0,0,0,0,0,0h0Z"/>
        <path class="st0" d="M21,17.1c.2-.3.5-.2.8-.1.2,0,.4,0,.4-.3,0-.8.6-.7,1.2-.6.4,0,.5.4.8.5.6.3,1.3,0,1.5-.7,0-.1,0-.4-.2-.3-.3,0-.4,0-.7.2-.2.1-.3,0-.5-.2-.4-.3-.8-.3-1.2-.3-.9,0-1.5.3-1.5,1.3l.3-.3c-.7,0-.6.2-.9.7,0,0,0,0,0,0h0Z"/>
        <path class="st0" d="M21,13.8c.2-1.1.6-1.4,1.5-1.8.9-.5,1.5-1.1,2.2-1.8.9-.9,1.9-1.8,3.1-2.3.5-.2,1-.3,1.5-.4.6-.1,1.1,0,1.7-.2.4,0,.4-.6.1-.8-.8-.6-2.5,0-3.3.4-1.3.6-2.3,1.5-3.3,2.5-.5.6-1,1.2-1.6,1.6-.5.3-.9.6-1.4.9-.6.4-1.1,1.1-.7,1.9,0,.1.2,0,.3,0h0Z"/>
        <path class="st0" d="M7.5.9c1.1,2,3.2,2.5,5.3,2.7,1.1,0,2.3,0,3.3.6.5.3.9.8,1.2,1.3.6,1.1.3,2.2.4,3.3,0,.8,1.2.6,1.1-.1-.2-1.6-.3-3.1-1.3-4.4-.6-.8-1.7-1.1-2.7-1.3-2.5-.5-5.3.2-6.9-2.4-.1-.2-.5,0-.3.2h0Z"/>
        <path class="st0" d="M8.1,1c-.2-.2,0-.3.2-.3,1.3-.2,2.6.9,4,.7,1-.1,1.9-.4,2.8-.7.9-.2,1.8,0,2.6.2,3,1,4.4,5.3,4.3,8.1,0,.7,1.1.7,1.1,0,0-3.1-1.6-7.5-4.7-8.6-1.7-.6-3.5-.3-5.2.1-.6.2-1.3.3-1.9.3-.5,0-1.1-.3-1.6-.4-.7-.2-1.4-.3-2,.2,0,0,0,.3.2.2l.4.2h0Z"/>
        <path class="st0" d="M6.2,5.6c.2,1.4,1.7,1.7,2.9,1.9.9.1,1.7.3,2.6.5.8.2,1.4.5,2.1.8.3.1.6-.1.4-.4-.6-1.1-2.5-1.1-3.6-1.2-1.3-.1-3.8.1-4.3-1.6,0-.1-.2,0-.2,0h0Z"/>
        <path class="st0" d="M6.5,5.7c0-.2,0-.3.1-.3,1-.2,2.3.3,3.3.4.9,0,1.8-.1,2.7-.2,1.1,0,2.1.3,3,.9.5.3,1-.5.5-.8-2-1.1-3.9-.7-6-.5-1.1.1-2.8-.7-3.7,0,0,0-.1,0-.1.2s0,.2.2.1h.1c0,0,0,0,0,0Z"/>
        <path class="st0" d="M24.8,6c.1.2,0,0,0,.2,0,.2.5,1.5.6,1.7.1.3-.2-.3,0,0,0,.4.8.2.6-.2-.1-.4.2.2,0-.2,0-.1-.7-1.6-.8-1.7-.1-.1,0,0,0,0,0,0-.3.2-.3.2h0Z"/>
        <path class="st0" d="M24.8,5.7c-1.3.7-2.1,1.9-2.6,3.3-.2.6.9.7,1,0,.3-1.1.8-2.2,1.8-2.9.3-.2,0-.6-.3-.4h0Z"/>
        <path class="st0" d="M17,9.4c.2.4.4.7.7,1,.3.3.7.7,1.2.7,0,0,.1,0,0-.1-.2-.3-.6-.5-.9-.7-.3-.3-.7-.6-.9-.9,0,0-.1,0-.1,0h0Z"/>
        <path class="st0" d="M12.6,14.7c.7-.4,1.4-.8,2.2-1,.9-.3,1.5.2,2.3.2.1,0,.2-.1.1-.3-.4-.6-1.4-.7-2.1-.6-1.1.2-1.9.7-2.6,1.6,0,0,0,0,0,0h0Z"/>
        <path class="st0" d="M14,16.6c0-.2,0-.3,0-.5,0-.2-.1-.4-.2-.6,0-.5-.8-.4-.7,0,0,.3.2.6.4.8,0,0,.2.2.3.2,0,0,.2,0,.3,0h0Z"/>
        <path class="st0" d="M13.5,15.9c.2,0,.3-.2.5-.2.2,0,.4-.2.6-.3.1-.1.2-.4,0-.5-.1-.2-.3-.2-.5-.2-.2,0-.5.2-.7.4-.2.1-.4.4-.3.7,0,.1.1.2.3.2h0Z"/>
        <path class="st0" d="M13.7,16.4c0,.2,0,.2.1.2.4.1.9,0,.9-.3,0-.2-.1-.4-.3-.4-.2,0-.4.1-.5.2,0,0-.2.2-.2.2h0Z"/>
        <path class="st0" d="M4.7,21.5c-.2.2-.2.4-.3.6-.2.3-.5.6-.8.8-.7.5-1.4.9-2.1,1.4-.7.5-2.2,2.8-.8,3.4.2,0,.7-.2.6-.4-.3-.4-.2-1.3.2-1.8.5-.6,1.2-1.1,1.8-1.5.5-.4,2.3-1.7,1.6-2.5,0,0-.1,0-.2,0h0Z"/>
        <path class="st0" d="M.4,26.4c-.4.8.5,1.9,1,2.5.4.4.8.8,1.1,1.2.3.4.5,1,.8,1.5,0,0,.5-.4.4-.4-.7-.4,0-1-.9-2-.4-.5-.8-.8-1.2-1.3-.2-.3-.4-.5-.6-.8-.2-.4-.1-.4-.4-.7,0,0-.2,0-.2,0,0,0,0,0,0,0Z"/>
        <path class="st0" d="M17.4,29.9c1.8-.2,3.9-.8,5.3-2,.8-.6,1-.9,1.6-1.6.5-.6,1.2-1.4,1-2.2,0-.2-.3-.3-.4-.2-.2.1-.6,1-1,1.5-.5.8-1.1,1.5-1.8,2.1-1.2,1.1-3.1,1.9-4.7,2.3,0,0,0,0,0,0h0Z"/>
        <path class="st0" d="M17.9,2c0-.2,0-.8-.5-1.5-.1-.2,0,0-.2-.1-.3-.3-.1,0-.5-.2C16.4,0,15.8.2,16.1.3c.3.2.1-.1.3,0,.1.1,0,.1,0,.2.7.4,1.3,1.4,1.3,1.4,0,0,0,0,0,0h0Z"/>
        <path class="st0" d="M19,3.2c0-.2.4-.6.3-1.5,0-.2,0,0-.1-.2,0-.4,0,0-.3-.4-.2-.3-.7-.4-.5-.1.2.3.2,0,.2.2,0,.1-.1,0,0,.2.4.7.4,1.9.4,1.9,0,0,0,0,0,0h0Z"/>
        <path class="st0" d="M19.5,4.7c.1-.1.7-.5.9-1.5,0-.2,0,0,0-.3.1-.5,0-.1-.1-.6,0-.4-.6-.8-.5-.4,0,.4.2,0,.1.4,0,.2-.1,0-.1.2.2,1-.3,2.2-.3,2.2,0,0,0,0,0,0h0Z"/>
        <path class="st0" d="M14.7,5.7c-.1,0-.2,0-.3,0-.4.6-1,1.1-1,1.1.2,0,.8,0,1.6-.9,0,0,0-.1,0-.1,0,0-.1,0-.2,0h0Z"/>
        <path class="st0" d="M13.8,5.4c-.2,0-.3-.1-.5-.2.1,0,0,0,0,0-.4.7-1.1,1.2-1.1,1.2.2,0,.8,0,1.6-.9.1-.1,0-.1,0-.2h0Z"/>
        <path class="st0" d="M12.3,5.4c-.1,0-.3,0-.5,0s-.2,0-.3,0c-.4.5-.8.8-.8.8.2,0,.8,0,1.6-.9,0,0,0,0,0,0,0,0,0,0,0,0h0Z"/>
        <path class="st0" d="M10.4,5.4c-.2,0-.4,0-.5,0-.3.3-.6.5-.6.5.2,0,.7,0,1.2-.6,0,0-.1,0-.1,0Z"/>
        <path class="st0" d="M8.4,5.3c-.2.2-.3.3-.3.3.1,0,.3,0,.7-.2-.1,0-.2,0-.3,0Z"/>
        <path class="st0" d="M19.9,6.3c.2,0,.8-.2,1.4-1.2.1-.2,0,0,0-.3.2-.4,0-.1,0-.6,0-.4-.3-.9-.4-.5,0,.4.2,0,0,.4,0,.2-.1,0-.2.1-.1,1-1,2-1,2,0,0,0,0,0,0h0Z"/>
        <path class="st0" d="M20.3,8c.2,0,.8-.1,1.5-.9.2-.2,0,0,.1-.3.3-.4,0-.1.2-.6.2-.4-.1-1-.2-.6-.1.4.2,0,0,.4-.1.2-.1,0-.2,0-.3.9-1.3,1.8-1.3,1.8,0,0,0,0,0,0h0Z"/>
        <path class="st0" d="M20.2,9.7c.2,0,.8.2,1.8-.3.2-.1,0,0,.2-.2.4-.2,0-.1.4-.5.3-.3.2-.9,0-.6-.2.3.1.1-.2.4-.1.1-.1-.1-.2,0-.6.8-1.9,1.2-1.9,1.2,0,0,0,0,0,0h0Z"/>
        <path class="st0" d="M16.1,1.4c0-.1-.4-.6-.8-1-.1,0,0,0-.2,0-.2-.2-.2-.2-.4,0,0,0,0,.1,0,.2.1.2-.4,0-.2,0,.1,0,0,0,.1,0,.4,0,1.4.6,1.5.7,0,0,0,0,0,0h0s0,0,0,0Z"/>
        <path class="st0" d="M14.2,1.2c-.1,0-.3-.2-.4-.3-.2,0-.2-.2-.4-.1,0,0,0,0,0,.1,0,.2-.1.2,0,.2.1,0,.7,0,.9,0,0,0,0,0,0,0h0Z"/>
        <path class="st0" d="M60.9,17.2c-2.6-.3-4.9-1.5-7.6-1.3s-5.3.8-8,.9c-5.6.2-10-4.2-15.3-5.2,0,.2,0,.4-.1.6,2.5.8,4.9,2.1,7.2,3.3,2.5,1.3,5,2.4,7.8,2.4s5.3-1.2,8-1.5c1.5-.2,2.8,0,4.2.5,1.3.4,2.4,1,3.8,1.1.6,0,.6-.8,0-.9h0Z"/>
        <path class="st0" d="M59.7,17.8c3.5.6,7,1.1,10.5,1.7,3.5.6,6.9.7,10.4.5,3.2-.2,6.6,0,9.8-.7,1.3-.2,2.6-.8,3.8-1.1.6-.2,1.2-.3,1.8-.4.8-.1,1.5,0,2.3-.3.4-.1.5-.8,0-.9-1.1-.3-2.5,0-3.7.3-1.2.3-2.3.7-3.5,1.1-3.3,1-6.9.6-10.2.8-3.7.2-7.2,0-10.9-.5-3.4-.5-6.9-1.3-10.3-1.3-.4,0-.6.7-.1.8h0Z"/>
        <path class="st0" d="M111.6,21.2h-.3s0,0,0,0h.3s0,0,0,0h0Z"/>
        <path class="st0" d="M108,20.8c-2.1-.9-3.8-2.2-5.8-3.1-.9-.4-1.8-.7-2.8-.9-.8-.2-1.9-.4-2.8-.2-.4.1-.5.7-.1.9.8.4,1.7.3,2.6.4,1,.1,2,.5,3,.9,2,.8,3.9,1.5,5.9,2,0,0,0,0,0,0h0Z"/>
        <path class="st0" d="M99.9,17.6c3.3.9,6.7,1,10,.3,1.8-.4,3.7-.8,5.5-1.2,2.1-.4,4.2-.3,6.2-.5.1,0,.2-.2,0-.2-3.8-1.2-7.3-.3-11,.6-3.6.9-7.1.6-10.7.6-.2,0-.2.2,0,.3h0Z"/>
        <path class="st0" d="M86.5,58.1c1.9,0,3.9-.5,5.8-1,1.8-.5,3.5-1,5.2-1.7s3.3-1.4,5.2-1.5c.9,0,1.8.2,2.7.4.4.1,1.8.8,2.2,1.8.2.5-.2-.6.2-.4s.7-.2.5-.5c-.4-.6-.9-1-1.6-1.4-.7-.5-1.7-.8-2.6-.9-1.8-.3-3.6.2-5.2.9-4,1.7-8.1,3.5-12.4,4.4,0,0,0,0,0,0h0Z"/>
        <path class="st0" d="M104.9,53.5c1.1.4,2.1,1.7,2.7,2.6.8,1.2,1.2,2.8,1.7,4.2.5,1.4,1.1,2.7,1.8,4,.4.8,1,1.9,1.4,3.2.2.8.2.6.4,1.4.2.5,1.4.6,1.3,0-.3-1.7-.8-3.1-1.5-4.3-1-1.7-1.8-3.5-2.5-5.3-.5-1.4-.9-3-1.8-4.1-.4-.5-.9-.9-1.4-1.2-.6-.4-1.2-.3-1.9-.5,0,0,0,0,0,0h0Z"/>
        <path class="st0" d="M108,90c.5-.8,1.4-1.1,1.9-1.8.7-1.1.3-2.3.8-3.5.4-.9,1.1-1.6,1.5-2.4.4-1,.7-2.1,1-3.2.5-2.1.7-4.3,1-6.4.2-1.7.5-4.3-.8-5.7-.4-.4-1,0-.9.5.2.9.6,1.8.7,2.8,0,1,0,2,0,3-.1,2.1-.4,4.2-.9,6.3-.2.9-.4,1.8-.8,2.6-.4,1-1.2,1.7-1.5,2.7-.4,1.2,0,2.4-.8,3.5-.5.6-.9,1-1.2,1.8,0,0,0,0,0,0h0s0,0,0,0Z"/>
        <path class="st0" d="M95.2,57.1c.2.9.8,1.7,1.3,2.3.5.7,1.1,1.7,1.9,2,.1,0,.3,0,.3-.2-.3-.8-1-1.3-1.5-1.9-.6-.7-1.1-1.6-1.8-2.3,0,0-.1,0-.1,0h0Z"/>
        <path class="st0" d="M96.6,65.6c.1.4.6.5.8.5.5,0,.9-.3,1.2-.6.7-.8,1-1.8,1.5-2.7.2-.5-.5-.9-.7-.4-.4.7-.7,1.4-1.1,2.1-.2.3-.4.6-.7.9,0,0-.3.2-.3.2-.2,0-.4-.2-.4-.5,0-.1-.4.5-.3.5h0Z"/>
        <path class="st0" d="M96.9,65.6c0-.8,0-1.5.1-2.3.2-.9.5-1.7.9-2.5.2-.4-.3-.7-.6-.3-.9,1.3-1.3,3.6-.8,5.1,0,.2.3.2.3,0h0Z"/>
        <path class="st0" d="M99.4,62.7c.9.7,2,1.3,3,1.8.9.4,2.2,1,3.2.7.3,0,.3-.5,0-.6-.4-.2-.9-.3-1.4-.4-.6-.1-1.2-.4-1.8-.6-1-.4-1.8-1.1-2.8-1.3-.2,0-.6.3-.4.5h0Z"/>
        <path class="st0" d="M105.8,70.2c1.8,1.5,2.7-3.7,2.8-4.6,0-.5-.7-.5-.8-.1-.3.8-.2,1.7-.4,2.5,0,.5-.2.9-.5,1.4-.2.4-.6.8-1,.5,0,0-.2.3-.1.3h0Z"/>
        <path class="st0" d="M106.1,69.9c-1.2-.4-.6-3.5-.2-5,.2-.5-.9-.7-.9,0,0,1-1,4.8,1,5.5,0,0,.1-.3,0-.3,0,0,0,0,0-.1Z"/>
        <path class="st0" d="M108.1,65.6c1,.6,2.5.2,3.5,0,.6-.1.4-1.1-.1-1-.6,0,.2-.2-.3,0-.7.3-2.5.6-3.1.6,0,0,0,.3,0,.4h0Z"/>
        <path class="st0" d="M98.2,65.8c1.7.8,2.6-.8,3.3-1.9.2-.4-.4-.8-.7-.4-.5,1-1.7,2.8-2.4,2.1,0,0-.2,0-.1,0h-.1c0,.1,0,0,0,0Z"/>
        <path class="st0" d="M107.2,69.4c.5.8,1.5-.2,1.8-.7.5-.9.8-2.1,1-3.1,0-.3-.5-.6-.6-.3-.3.7-.4,1.5-.6,2.3-.1.4-.3.8-.6,1.1-.3.3-.6.2-.9.4,0,0,0,.1,0,.2h0Z"/>
        <path class="st0" d="M104.7,52c1.3.3,2.4,1.2,3.4,2.1.5.5.9,1,1.2,1.6.3.5.6,1.2,1.1,1.6.1,0,.3,0,.3-.1,0-1.3-1.3-2.6-2.2-3.4-1.1-1-2.3-1.5-3.8-1.8,0,0,0,0,0,0h0Z"/>
        <path class="st0" d="M122.6,69.5c1.3-1.7.8-3.6.1-5.4-.4-1.1-.8-2.2-.8-3.3,0-1.3.5-2.7,1-3.9,1-2.5,2.4-4.7,3.5-7.2.5-1.2,1.1-2.5,1.5-3.8.4-1.1.9-2.7.6-3.8-.1-.5-.8-.5-1,0-.2.6-.2,1.2-.3,1.8-.1.7-.3,1.4-.6,2.1-.4,1.3-.9,2.6-1.5,3.8-1,2.2-2.3,4.3-3.2,6.5-.9,2.1-1.1,4.2-.5,6.4.6,2.3,1.8,4.3,1.1,6.8,0,0,0,.1,0,0h0Z"/>
        <path class="st0" d="M112.7,87.8c0,.8.3,1.6.4,2.4,0,.2.2.3.4.3.4,0,.8,0,1.1-.3.5-.4-.3-1.7-.4-1.1,0,.5-.5.8-.8.8,0,0,.2,0,.3,0-.2-.7-.5-1.4-.9-2.1,0,0-.2,0-.2,0h0Z"/>
        <path class="st0" d="M114.8,90c.2-2.1.5-4.1,1.1-6.1.6-2.1,1.6-4.2,2.5-6.2.8-1.8,1.7-3.7,2.7-5.4.8-1.5,1.9-2.7,2.2-4.4,0-.2-.3-.3-.3,0-.2,1-.7,1.5-1.3,2.3-.6.8-1.1,1.6-1.6,2.5-1,1.9-1.9,3.9-2.8,5.8-1.6,3.8-3,7.5-2.9,11.7,0,.4.5.3.6,0h0Z"/>
        <path class="st0" d="M122,88.2c.2-1.5.3-2.3.6-3.8.3-1.5.2-3,.2-4.5,0-3.2.1-6.5-.3-9.8,0-.6-1-.4-1,.1.1,1.7.5,3.3.6,4.9,0,1.7,0,3.4,0,5.1,0,1.7,0,3.3-.3,4.9-.3,1.3-.6,2.6-.4,3.9,0,.3.2.1.2-.2l.3-.7h0Z"/>
        <path class="st0" d="M125.3,87.7c.2.3.3.7.4,1,.1.4.3.7.5,1.1.4.8,1.3.8,1.9.2.4-.3-.1-.9-.5-.7-.2,0-.4.3-.6.2-.3-.1-.4-.3-.6-.6-.2-.3-.3-.5-.5-.8-.2-.3-.3-.4-.5-.6,0,0-.1,0,0,0h0Z"/>
        <path class="st0" d="M128.2,89.8c0-.7-.3-1.2-.6-1.9-.3-.8-.3-1.7-.3-2.6,0-1.8,0-3.6.2-5.4.2-1.8.4-3.7.6-5.5.3-2,.9-3.9,1.2-5.9.1-.6-.8-.8-.9-.2-.3,1.8-.9,3.6-1.1,5.4-.3,2-.4,3.9-.5,5.9,0,1.9-.2,3.9-.1,5.8,0,1.6.9,3.7.6,4.2-.2.2.8.5.8.3h.1s0,0,0,0Z"/>
        <path class="st0" d="M128.8,69.1c.2-.2.2-.3.2-.6,0-.4.3.1.4-.3.2-1.4-.8-2.6-1.5-3.1-.5-.4-1.3,0-.8.3.5.4,1.5,1.5,1.4,2.7,0,.5-.2.5,0,.9,0,0,.1,0,.2,0h0Z"/>
        <path class="st0" d="M128,65.1c-2.5-1.8-2.6-5.7-2.2-8.5.7-4.6,2.6-9,2.6-13.7,0-.8-1.2-.5-1.2.3-.2,5.2-2.6,9.8-2.6,15,0,1.5.3,3.1.8,4.6.4,1.2,1.1,2.7,2.5,2.8.3,0,.3-.4.1-.5h0Z"/>
        <path class="st0" d="M105.7,93.4c.7-.2.3-.7.6-1.3.4-1,1.4-1.8,2.1-2.5s.6-1.1.2-.8c-1,.5-2.1,1.5-2.5,2.2-.5.8-.6,1.7-1.1,2.5,0,0,.6,0,.7,0h0Z"/>
        <path class="st0" d="M121.6,87.8c-.3,1.2-1.1,1.9-1.8,2.8-.3.3-.6.6-.7,1-.2.5-.1,1.1-.3,1.6,0,0,.1,0,.2,0,.2-.2.4-.4.5-.7.3-.8.7-1.2,1.4-1.7,1.1-.8,1.2-2.1,1.3-2.9,0-.2-.5-.4-.5-.2h0Z"/>
        <path class="st0" d="M118.6,71.2c.4.1.8,0,1.2-.2.3-.2,1-.6.9-1-.2-.5-.6-.2-.9,0-.4.3-.8.7-1.2.9,0,0,0,.2,0,.2h0Z"/>
        <path class="st0" d="M126,70.7c.4-.1.8-.3,1.1-.6.2-.2.8-.5.6-.9-.2-.4-.7.1-.9.3-.3.3-.6.7-.9.9-.1,0,0,.3.2.3h0Z"/>
        <path class="st0" d="M121.7,65.7c-.4-.8-.6-1.6-.8-2.4-.2-.8-.2-1.8-.7-2.6,0-.1-.3,0-.3,0-.1.8.2,1.7.5,2.4.3.9.8,1.8,1.3,2.6,0,0,0,0,0,0h0Z"/>
        <path class="st0" d="M119.9,18.9c3.9,2.5,6.8,7.4,7.7,11.9.5,2.4.5,4.9.4,7.4,0,1.4-.2,2.7-.5,4-.3,1.3-.6,2.6-.8,3.9,0,.7,1.1.8,1.2.2.3-1.4.7-2.7,1-4,.3-1.3.3-2.7.4-4,0-2.7,0-5.4-.6-8-1.1-4.9-4.3-9-8.7-11.3,0,0,0,0,0,0h0Z"/>
        <path class="st0" d="M117.8,16c1.8.7,3.6,1,5.3,2,1.6,1,3,2.4,4.1,4,2.6,3.5,3.6,7.8,3.7,12.1.2,5.2-.9,10.4-1.5,15.6-.6,4.4.7,8.8,3.5,12.3.4.4,1-.1.7-.6-1-2.2-2.3-4.2-2.9-6.5-.6-2.5-.2-5,.1-7.5.7-5.5,1.6-10.9.9-16.4-.5-3.9-1.9-7.5-4.3-10.6-2.1-2.6-6.1-5.6-9.6-4.7-.1,0-.1.2,0,.2h0Z"/>
        <path class="st0" d="M130.5,62.1c-1.6-3.7-2.6-6.8-2.8-10.8,0-1.6.2-3.1.4-4.7.1-.8.2-1.5.3-2.3.1-.6.3-1.2.2-1.8,0-.4-.6-.4-.8,0-.3.5-.3,1.1-.4,1.7-.1.8-.2,1.6-.3,2.4-.2,1.7-.3,3.4-.2,5.2.2,4,2.8,8.8,3.3,11.4,0,0,.6-.2.6-.3,0,0-.2-.7-.2-.7Z"/>
        <path class="st0" d="M132.3,60.6c.1.9,0,.8.6,1.5.9,1,2.2,3.1,2.6,4.5.3,1.3.4,2.6.4,3.9,0,1.1-.6,2.4-.1,3.5,0,.2.3.2.5,0,.9-.8.8-2.4.9-3.5.1-1.3,0-2.7-.3-3.9-.6-2.6-2.5-4.2-3.7-6.3,0,0-.7.3-.7.4h0Z"/>
        <path class="st0" d="M129.2,59.9c.4,1.2.8,2.4,1.1,3.7.3,1.3.5,2.7.8,4,.3,1.5.8,5.2,2.9,5.4.2,0,.3-.2.2-.3-.1-.9-1-1.7-1.4-2.5-.6-1.2-.9-2.5-1.1-3.8-.4-2.2-.9-4.6-2.4-6.4,0,0,0,0,0,0h0Z"/>
        <path class="st0" d="M131.6,62c1.1,1.4,1.8,3.4,2.1,5.2.4,1.6.3,3.4.9,5,0,0,.2,0,.2,0,.3-1.8,0-3.7-.5-5.4-.5-1.9-1.4-3.3-2.7-4.7,0,0,0,0,0,0h0Z"/>
        <path class="st0" d="M134.3,61.6c1.1.9,1.9,2.1,2.5,3.5.2.5.4,1.1.6,1.7.2.5.2,1.1.6,1.5,0,0,.2,0,.2,0,.4-1.1-.4-2.7-.9-3.6-.7-1.2-1.6-2.3-2.9-3,0,0,0,0,0,0h0Z"/>
        <path class="st0" d="M132.8,65.9c.2,1,.3,2,.6,2.9.2,1,.7,2.3,1.3,3.2.2.3.3-.4,0-.9-.5-.9-.6-1.4-.9-2.4-.3-.9-.7-1.9-.9-2.8,0,0,0,0,0,0h0Z"/>
        <path class="st0" d="M49.8,72.6c.4.9,1,1.8,1.4,2.7.5,1,.8,2.1,1.3,3.1s.3,0,.3,0c0-2.1-1.5-4.4-3-5.7,0,0,0,0,0,0h0Z"/>
        <path class="st0" d="M56.5,37.9c.7,1.2,1.4,2.4,2,3.7.7,1.4,1,2.9,1.6,4.3,0,.2.3,0,.3,0,0-2.9-1.7-6.1-3.8-7.9,0,0-.2,0-.1,0h0Z"/>
        <path class="st0" d="M45.9,54.5c-.6-1.6-1.7-3-2.3-4-.6-1-1.2-2.4-2.1-3-.2-.1-.5,0-.5.3.1,1.2,1.2,2.2,1.8,3.2.6.9,1.8,2.1,2.6,3.9,0,.2,0-.7-.3-1.3l.8.8h0Z"/>
        <path class="st0" d="M109.1,52.5c-1-.8-2-1.7-2.8-2.7-.8-1-1.4-2.2-2.2-3.1-.2-.2-.5,0-.4.2.3,1.2,1.2,2.2,2,3.1,1,1.1,2.1,2,3.4,2.6,0,0,.2,0,0-.1h0Z"/>
        <path class="st0" d="M121.1,56.5c.7-2.8,2.2-5.3,3.5-7.9,1.3-2.6,2.1-5.3,2.5-8.1.4-2.7.3-5.3-.2-8-.4-2.2-.8-4.9-2.6-6.4-.2-.1-.4,0-.2.2,1.6,1.9,2.1,4.1,2.5,6.5.5,3,.5,5.9-.1,8.9-.5,2.7-1.4,5.2-2.6,7.6-1.1,2.3-2.3,4.6-2.9,7.1,0,0,0,0,0,0h0Z"/>
        <path class="st0" d="M122.6,50.2c1.3-2.8,2.4-5.7,3.1-8.7.3-1.5.5-2.9.6-4.4,0-1.5,0-3.3-.5-4.7,0-.1-.2-.1-.2,0,0,1.4.4,2.8.5,4.3,0,1.6-.2,3.2-.5,4.8-.6,3-1.7,5.9-2.9,8.8,0,0,0,0,0,0h0Z"/>
        <path class="st0" d="M111.3,60.5c.4,1.5,1.3,2.7,2,4,.4.8.8,1.6,1.1,2.4.3.8.3,1.5.4,2.3,0,0,.2,0,.2,0,.3-1.4-.4-2.9-1-4.1-.8-1.6-1.8-3.1-2.7-4.7,0,0,0,0,0,0h0Z"/>
        <path class="st0" d="M114.1,87.1c.4-2.1.8-4.1,1.5-6.2.4-1.1.8-2.2,1.3-3.3.5-1,1.2-1.9,1.7-2.9,0-.2-.1-.3-.3-.2-1.4,1.5-2.1,3.9-2.8,5.8-.8,2.2-1.4,4.6-1.4,6.9,0,0,0,0,0,0h0Z"/>
        <path class="st0" d="M54.3,76.7c.4-2.3.8-4.6,1.4-6.8.3-1.1.6-2.3.8-3.4.3-1.1.6-2.3.6-3.5s-.2-.2-.2,0c-.3,1.1-.4,2.3-.6,3.4-.2,1.2-.5,2.3-.8,3.4-.5,2.2-1.1,4.6-1.2,6.9h0,0Z"/>
        <path class="st0" d="M21.9,14.4c2.3-1.7,5.1-2.9,7.5-4.5.2-.1,0-.3-.2-.2-1.1.5-2.2,1.1-3.2,1.8-1.5.9-3,1.8-4.4,2.8-.1.1,0,.3.2.2h0Z"/>
        <path class="st0" d="M22.5,14.8c2.1-1.4,4.6-2.3,6.8-3.6.1,0,0-.3-.1-.2-.9.3-1.8.8-2.7,1.3-1.4.7-2.9,1.4-4.1,2.4-.1.1,0,.3.2.2h0Z"/>
        <path class="st0" d="M23.2,15.1c1.7-.8,3.6-1.2,5.3-2,.2,0,0-.3-.1-.2-1.8.3-3.8,1.2-5.3,2-.2,0,0,.3.2.2h0Z"/>
        <path class="st0" d="M21.4,13.8c1.5-1.1,3.1-2.1,4.7-3.1,1.1-.7,2.3-1.5,3.4-2.2.2-.1,0-.3-.2-.2-2.8,1.7-5.7,3.2-8.2,5.3-.1.1,0,.3.2.2h0Z"/>
        <path class="st0" d="M21.2,13c1.5-1.1,3.1-2.1,4.7-3.1,1.1-.7,2.3-1.5,3.4-2.2.2,0,0-.3-.2-.2-2.8,1.7-5.7,3.2-8.2,5.3-.1.1,0,.3.2.2h0Z"/>
        <path class="st0" d="M22.9,28.6c2.2-1.1,4.5-3.8,4.1-6.5,0-.1-.2-.1-.2,0-.2.8-.2,1.7-.5,2.5-.6,1.7-2,2.9-3.4,4,0,0,0,0,0,0h0Z"/>
        <path class="st0" d="M14.4,10.4c0-.7.2-1.3.6-1.8,0,0-.2,0-.2,0,0,.4.3.6.5,1,0,.1.2.1.3,0,.2-.3.4-.5.7-.8.3-.3.7-.2,1-.3.1,0,.1-.1,0-.2-.8-.6-1.6.4-2.1,1,0,0,.2,0,.3,0-.2-.3-.4-.6-.5-.9,0-.1-.2-.2-.2,0-.4.6-.6,1.2-.5,2,0,0,0,0,0,0h0Z"/>
        <path class="st0" d="M21.9,30c.8.5,2.1.7,3,.6,0,0,0-.1,0-.2-.4-.1-.9-.1-1.3-.2-.5,0-1.1-.2-1.7-.3,0,0,0,0,0,0h0Z"/>
        <path class="st0" d="M23.1,29.8c.7,0,2.2.2,2.6-.6,0,0,0-.2,0-.1-.4,0-.7.3-1.1.4-.5.1-1,.2-1.4.3,0,0,0,0,0,0h0Z"/>
        <g>
          <path class="st0" d="M58,60.7c0,.2,0,.5,0,.8,1.6,1.7,3.3,3.4,5.2,4.8,0,0,0,0,0,0-1.5-2-3.3-3.8-5.2-5.5Z"/>
          <path class="st0" d="M58.7,59.2h0c-.1.1-.2.2-.4.3,1.7,1.8,3.5,3.5,5.4,5,0,0,0,0,0,0-1.5-1.9-3.2-3.6-5-5.3Z"/>
          <path class="st0" d="M59.7,58.8c1.3,1.3,2.7,2.6,4.1,3.7,0,0,0,0,0,0-1-1.3-2.2-2.6-3.4-3.8-.2,0-.5,0-.7,0h0Z"/>
          <path class="st0" d="M62.5,58.7c-.2,0-.4,0-.7,0,.8.8,1.6,1.5,2.5,2.1,0,0,0,0,0,0-.6-.7-1.2-1.4-1.8-2.1h0Z"/>
          <path class="st0" d="M57.6,66.6c0,.2,0,.4-.1.6,1.6,1.7,3.3,3.3,5,4.7,0,0,0,0,0,0-1.5-1.9-3.2-3.6-4.9-5.3h0Z"/>
          <path class="st0" d="M57.9,64.7c0,.2,0,.4,0,.7,1.5,1.6,3.2,3.2,4.9,4.5,0,0,0,0,0,0-1.4-1.8-3.1-3.5-4.8-5.2h0Z"/>
          <path class="st0" d="M58.1,62.8c0,.2,0,.5,0,.7,1.6,1.7,3.3,3.3,5.1,4.7,0,0,0,0,0,0-1.5-1.9-3.2-3.7-5-5.4h0Z"/>
          <path class="st0" d="M57.3,72.6c.2.3.4.5.6.8.2.3.4.7.5,1,1.1,1,2.2,2,3.3,2.9,0,0,0,0,0,0-1.3-1.7-2.8-3.3-4.4-4.8h0Z"/>
          <path class="st0" d="M56.7,69.8c0,.2-.1.3-.2.5,1.7,1.8,3.5,3.5,5.4,5,0,0,0,0,0,0-1.5-2-3.3-3.8-5.2-5.5h0Z"/>
          <path class="st0" d="M59.2,76.7c0,.3.2.6.3.9.7.6,1.3,1.2,2,1.7,0,0,0,0,0,0-.7-.9-1.5-1.8-2.3-2.6h0Z"/>
          <path class="st0" d="M57.2,68.3c0,.2,0,.4-.2.6,1.7,1.8,3.4,3.5,5.3,4.9,0,0,0,0,0,0-1.5-1.9-3.3-3.8-5.1-5.5h0Z"/>
        </g>
        <g>
          <path class="st0" d="M121.9,62.5c0,.2,0,.4.2.6,0,.2,0,.3.1.4,1,.9,2,1.8,3.1,2.7,0,0,0,0,0,0-1-1.3-2.2-2.5-3.3-3.7Z"/>
          <path class="st0" d="M121.4,60c0,.3,0,.6.2.9,1.3,1.3,2.6,2.6,4.1,3.7,0,0,0,0,0,0-1.3-1.6-2.7-3.1-4.2-4.6h0Z"/>
          <path class="st0" d="M125.5,62.2c-1.2-1.4-2.5-2.8-3.8-4.1,0,.2-.1.4-.2.6,1.3,1.3,2.6,2.5,4,3.7,0,0,0-.1,0-.2Z"/>
          <path class="st0" d="M125.4,59.8c-1-1.2-2.1-2.3-3.2-3.4,0,.2-.1.4-.2.6,1.1,1.1,2.2,2.2,3.4,3.1,0-.1,0-.2,0-.4Z"/>
          <path class="st0" d="M125.5,57.5c-.8-.9-1.7-1.8-2.6-2.7,0,.2-.2.4-.2.5.9.9,1.8,1.8,2.8,2.6,0-.1,0-.3,0-.4Z"/>
          <path class="st0" d="M125.6,55.6c-.6-.7-1.3-1.4-2-2.1,0,.2-.2.3-.3.5.7.7,1.5,1.4,2.2,2.1,0-.2,0-.3,0-.5Z"/>
          <path class="st0" d="M125.8,53.8c-.5-.5-.9-1-1.4-1.5-.1.2-.2.3-.3.5.5.5,1.1,1,1.7,1.5,0-.2,0-.3,0-.5h0Z"/>
          <path class="st0" d="M122.3,69.3c0,.1-.2.3-.3.4.8.8,1.7,1.5,2.5,2.2,0,0,0,0,0,0-.7-.9-1.4-1.7-2.2-2.6h0Z"/>
          <path class="st0" d="M123,67.8c0,.2,0,.3-.1.5.6.5,1.2,1.1,1.8,1.5,0,0,0,0,0,0-.5-.7-1.1-1.4-1.7-2h0Z"/>
          <path class="st0" d="M122.6,65.3c0,.3.1.6.2.9.7.7,1.5,1.3,2.3,1.9,0,0,0,0,0,0-.8-1-1.6-1.9-2.5-2.8h0Z"/>
          <path class="st0" d="M122.5,76v.5c.4.3.8.7,1.2,1,0,0,0,0,0,0-.4-.5-.8-1-1.2-1.4h0Z"/>
          <path class="st0" d="M122.4,73.6c0,.2,0,.4,0,.6.5.4.9.8,1.4,1.2,0,0,0,0,0,0-.5-.6-.9-1.2-1.5-1.7h0Z"/>
          <path class="st0" d="M122.4,78.1v.4c.3.3.7.6,1,.8,0,0,0,0,0,0-.3-.4-.7-.8-1-1.2h0Z"/>
          <path class="st0" d="M122.2,71.3c0,.2,0,.5,0,.8.7.6,1.3,1.2,2,1.7,0,0,0,0,0,0-.7-.8-1.4-1.7-2.1-2.4h0Z"/>
        </g>
        <polygon class="st0" points="126.6 93.4 118.7 93.4 118.9 92.4 119.3 92.3 126.7 93.1 126.6 93.4"/>
        <path class="st0" d="M120.4,92.8c-.4.2,1.4.3,1.4.3,0,0,0-2.1.4-3.3-1.1,1.5-1.8,3-1.8,3,0,0,.4-.2,0,0Z"/>
        <polygon class="st0" points="113.2 93.4 105.4 93.4 105.6 92.4 106 92.3 113.4 93.1 113.2 93.4"/>
        <path class="st0" d="M107.1,92.8c-.4.2,1.4.3,1.4.3,0,0,0-2.1.4-3.3-1.1,1.5-1.8,3-1.8,3,0,0,.4-.2,0,0Z"/>
        <polygon class="st0" points="66.5 93.4 59.3 93.4 59.5 92.4 59.8 92.3 66.6 93.1 66.5 93.4"/>
        <path class="st0" d="M60.4,92.8c-.4.2,1.3.3,1.3.3,0,0,0-2.1.4-3.3-1,1.5-1.7,3-1.7,3,0,0,.4-.2,0,0Z"/>
        <polygon class="st0" points="55 93.4 47.2 93.4 47.3 92.9 48.4 92.3 55.2 92.9 55 93.4"/>
        <path class="st0" d="M49,92.8c-.4.2,1.3.3,1.3.3,0,0,0-2.1.4-3.3-1,1.5-1.7,3-1.7,3,0,0,.4-.2,0,0Z"/>
        <path class="st0" d="M32.2,45.1c.9,1.8,2.3,3.1,3.8,4.4,1.7,1.5,2.7,3.7,4.4,5,.1,0,.3,0,.2-.2-1-1.7-2.3-3.4-3.7-4.8-1.6-1.6-3.5-2.6-4.7-4.5,0,0,0,0,0,0h0Z"/>
        <path class="st0" d="M35.7,47.7c1.2,1.2,2.5,2.3,3.8,3.5,0,0,.2,0,.1,0-.9-1.5-2.4-2.5-3.8-3.5,0,0,0,0,0,0h0Z"/>
        <path class="st0" d="M26.3,32.6c1.4.2,3.5.5,4.2-1,0-.1,0-.3-.2-.2-.6.4-1,.8-1.8,1-.7.2-1.5,0-2.2,0-.1,0-.2.2,0,.2h0Z"/>
        <path class="st0" d="M28.5,16.9c.9,0,1.5-.6,2-1.3.2-.2,1.8-1.7,1.9-.7,0,.5-.2.9-.2,1.4,0,0,0,0,0,0,.8,0,1.6-.1,2.5-.1s1.8.3,2.7.5c0,0,.1-.1,0-.1-1.1-.7-2.6-.7-3.9-.5-.3,0-.7.1-1,.2-.6.1,0-.9,0-.9.1-.2.3-.4.1-.7-.3-.5-1.2-.2-1.6,0-1,.7-1.3,1.9-2.6,2.2,0,0,0,0,0,0h0Z"/>
        <path class="st0" d="M40.2,17.7c2.8,1,6.2,1.5,9.1.3.1,0,0-.2,0-.2-1.5.2-2.9.7-4.4.7-1.6,0-3.2-.4-4.7-.8,0,0,0,0,0,0h0Z"/>
        <path class="st0" d="M19.8,17.5c.9.3,2.8.9,3.4-.2,0,0,0-.2-.1-.2-.5.2-1,.4-1.5.4s-1.1-.1-1.7-.3c-.1,0-.2.2,0,.2h0Z"/>
        <path class="st0" d="M6.1,22.2c1.2.2,2.2.7,3.3,1.1,0,0,.1,0,.1-.1-.3-.9-.8-1.4-1.5-2.1-.1-.1-.3-.3-.4-.4-.4-.5.3-.3.5-.3.5,0,1.1,0,1.6-.1,0,0,.1-.1,0-.2-.4-.3-.7-.6-.9-1-.2-.6.8-.6,1.1-.7.7,0,1.3.1,2,.1,0,0,.1-.1,0-.2-.8-.4-2.5-.5-3.2.2-.3.2-.1.6,0,.9,0,0,.6.7.6.7-.7.2-1.4,0-2.1,0,0,0-.1,0,0,.1.6.8,1.5,1.4,2,2.3.3.6-1.2,0-1.3-.1-.6-.2-1.1-.3-1.7-.4,0,0,0,0,0,0h0Z"/>
        <path class="st0" d="M15.6,12.5c.6,0,1.1.1,1.6.3.6.2,1,.6,1.4,1,0,0,.1,0,.1,0-.4-1.1-2.1-1.3-3.1-1.4,0,0,0,0,0,0h0Z"/>
        <path class="st0" d="M44.4,49.8c.9,2.1,2,4.1,2.8,6.2.7,2,1.1,4.2,1.4,6.3,0,0,0,0,0,0,.5-4.3-1.9-9-4.2-12.5,0,0,0,0,0,0h0Z"/>
        <path class="st0" d="M56.7,55.3c0-1.1.1-2.1.4-3.2.2-1.1.7-2,.9-3.1,0-.1-.1-.2-.2,0-1.2,1.7-1.4,4.3-1.2,6.3,0,0,0,0,0,0h0Z"/>
        <path class="st0" d="M59.7,58.1c3.5-.9,7.3-.7,10.8-.5,2,0,4,.3,5.9.5,1.6.2,3.4.7,5.1.5.1,0,.2-.2,0-.2-1.4-.7-3.3-.7-4.8-.9-2.1-.2-4.2-.3-6.2-.4-3.6,0-7.4,0-10.8,1,0,0,0,0,0,0h0Z"/>
        <path class="st0" d="M105.8,55.2c1.3,1.3,1.8,3,2.4,4.7.4,1.4.8,3.1,1.8,4.2.1,0,.3,0,.2-.2-1.8-2.7-1.8-6.5-4.4-8.7,0,0,0,0,0,0h0Z"/>
        <path class="st0" d="M107,58c.6,1.9.8,4.3,2.1,5.9,0,0,.2,0,.1,0-.4-1-.9-1.9-1.2-2.9-.3-1-.6-2-1-3,0,0,0,0,0,0h0Z"/>
        <path class="st0" d="M108.1,63.3c-.7-1-.9-2.1-1.3-3.1,0,0,0,0,0,0,.3,1.1.7,2.2,1.4,3.1,0,0,0,0,0,0h0Z"/>
        <path class="st0" d="M96.2,57.2c1,1.1,1.8,2.3,3.2,3,0,0,.1,0,0,0-.4-.7-1-1.4-1.4-2.1,0-.2.6.4.7.5.2.2.5.3.8.4,0,0,.2,0,.2-.1,0-1.4,0-2.5,1.6-3,0,0,0-.2,0-.1-.8,0-1.3.5-1.7,1.2-.2.4-.2.9-.2,1.4,0,.6-.8-.2-1.1-.4-.2-.2-.4-.4-.7-.6,0,0-.2,0-.2.1.2.4.4.8.6,1.1.2.3.7,1.2.9,1.3-1.2-.6-2-1.8-3-2.7,0,0,0,0,0,0h0Z"/>
        <path class="st0" d="M97.8,64.3c.3-.5.7-1.3.8-1.9,0,0,0,0-.1,0-.2.2-.2.5-.3.8-.1.4-.3.8-.5,1.1,0,0,0,.1,0,0h0Z"/>
        <path class="st0" d="M23.7,15.9c1.6,1,4.4-.4,5.5-1.8,1.6-2,2.7-5.1,2.6-7.7,0-.6-.8-.6-.9,0-.2,2.3-.7,4.5-1.8,6.5-1.1,2-3.1,2.6-5.3,2.7,0,0-.1.1,0,.2h0Z"/>
        <path class="st0" d="M4.3,24.9c0,.2,0,.4,0,.6,0,.1-.4.2-.5.3-.4.2-.9.2-1.3.5-.2.1-.3.4-.2.6.3.4.7.7,1,1,.6.4,1.1-.6.5-.9-.3-.2-.6-.5-.9-.7,0,.2.1.4.2.6.3-.5,1.1-.4,1.4-.9s.2-1-.2-1.1c0,0,0,0,0,0h0Z"/>
        <path class="st0" d="M3.1,30.9c0,.4.4.7.7.9.4.2,1,.3,1.3,0,.2-.2,0-.6-.3-.6-.3,0-.5.1-.8,0-.3,0-.5-.3-.7-.5-.2-.1-.4,0-.3.2h0Z"/>
        <path class="st0" d="M4.1,26.7c.3.2.4.5.4.8,0,.3-.2.4-.2.7,0,0,0,0,0,0,.3,0,.4-.5.4-.7,0-.4-.3-.7-.6-.9,0,0,0,0,0,0h0Z"/>
        <path class="st0" d="M4.8,31.5c-.3,1.2,1.8,1.4,2.5,1.3.9-.1,1.7-.5,2.6-.8.7-.3,1.4-.5,1.9-1,.1-.1.2-.3.1-.4,0,0,0,0,0-.1,0-.1-.2-.2-.4-.2-1.1.1-2.2,1-3.3,1.4-.6.2-1.2.4-1.9.4-.6,0-.8-.4-1.3-.8,0,0-.2.2-.2.3h0Z"/>
        <path class="st0" d="M4.5,31.6c1,0,1.9.1,2.9,0,1.1-.2,2.4-.3,3.5-.7.3,0,.3-.6,0-.6-2.1-.3-3.9.9-6.1.9,0,0-.4.4-.3.4h0Z"/>
        <path class="st0" d="M8.5,29.5c.5,0,1.1.1,1.6.1.5,0,1.1.3,1.6.1.1,0,.2-.2,0-.3-.4-.5-.9-.5-1.5-.5-.7,0-1.2.2-1.9.4,0,0,0,0,0,0h0Z"/>
        <path class="st0" d="M10.5,27.7c.3.2.7.4,1,.6.3.2.6.5.9.7,0,0,.1,0,.1-.1-.4-.6-1.2-1-1.9-1.3,0,0-.2,0,0,.1h0Z"/>
        <path class="st0" d="M3.4,23.6c.2.1.4,0,.6,0,.2,0,.4,0,.7-.2.5-.3.7-1,.5-1.5-.2-.4-.8-.2-.8.2,0,.1,0,.3,0,.5,0,.1-.2.2-.3.2-.1.1-.3.2-.4.3-.1,0-.3.1-.4.3,0,.1,0,.2,0,.3h0Z"/>
        <path class="st0" d="M4.6,23.7c.5,0,1,.1,1.5.2.4,0,.8.2,1.1.1,0,0,.1-.1,0-.2-.5-.9-2-.3-2.7-.1,0,0,0,0,0,0h0Z"/>
        <path class="st0" d="M27.1,20.5c-.2-1.7-.9-3.6-2.4-4.7-.3-.2-.8.3-.5.6,1.3,1,2.4,2.5,2.8,4.1,0,0,0,0,0,0h0Z"/>
        <path class="st0" d="M24.4,15.1c.4,0,.8-.2,1.1-.3.3,0,.6-.1.9-.3,0,0,0-.1,0-.1-.3,0-.6,0-.9.2-.4.1-.7.3-1.1.5,0,0,0,0,0,0h0Z"/>
        <path class="st0" d="M26.8,17.1c-.1-.4-.3-.6-.6-.9-.2-.2-.5-.6-.8-.6s-.1,0,0,.1c.1.3.5.4.7.6.2.2.5.5.7.7,0,0,0,0,0,0h0Z"/>
        <path class="st0" d="M26.5,15.4c0,0-.1.1-.2.2.2.2.4.4.7.6,0,0,0,0,0,0-.1-.3-.3-.6-.5-.8h0Z"/>
        <path class="st0" d="M11.7,27.7c.8.5,1.7.8,2.5,1.3.1,0,.3,0,.2-.2-.1-.4-.1-.9-.3-1.3,0,0-.1.1-.2.2,1.7.3,2.9,1.7,4.8,1.1,1.4-.4,3.3-1.9,3.6-3.4,0-.2-.2-.3-.4-.2-.5.4-.8,1.1-1.3,1.6-.6.8-1.4,1.4-2.4,1.6-1.5.5-2.9-.9-4.3-1.1-.2,0-.3.1-.2.3.2.4.2.9.3,1.3,0,0,.2-.1.2-.2-.8-.5-1.7-.9-2.6-1.2-.1,0-.2.1,0,.2h0Z"/>
        <path class="st0" d="M126.2,81c.1-1.4.2-2.8.3-4.3.1-1.5.5-3.2.3-4.7,0-.1-.2-.2-.2,0-.4,1.3-.4,2.9-.5,4.3-.1,1.6-.2,3.1,0,4.7,0,0,.1,0,.2,0h0Z"/>
        <path class="st0" d="M117.5,70.5c.6,0,1.5,0,1.8-.5,0-.1,0-.2-.2-.2-.3,0-.5.2-.8.3-.3.2-.6.3-.9.3,0,0,0,0,0,0h0Z"/>
        <path class="st0" d="M106.6,68.8c.4-.9.8-2.1.7-3,0,0,0,0-.1,0-.2.4-.2.9-.2,1.4,0,.6-.2,1.1-.3,1.6,0,0,0,0,0,0h0Z"/>
        <path class="st0" d="M98.5,65.3c0,0,.2,0,.2,0,0,0,0,0,0,0,0,0-.2,0-.2,0s0,.1,0,.1h0Z"/>
        <path class="st0" d="M101.9,62.4c1.5.8,3.7,1.7,5.5,1.3,0,0,0-.1,0-.1-.9-.2-1.8-.2-2.8-.4-.9-.2-1.8-.5-2.7-.8,0,0,0,0,0,0h0Z"/>
        <path class="st0" d="M59.3,57c0-1.1.1-2.1.9-3-.1,0-.2,0-.3,0,.2.8.7,1.5.8,2.4,0,0,0,0,0,0,1.5.1,3,0,4.6,0,.8,0,1.5,0,2.3,0,.7,0,1.5.2,2.2.1.2,0,.2-.3,0-.4-.8-.3-1.8-.3-2.6-.3-1.1,0-2.3,0-3.4.1-.3,0-3,.4-3,0,0-.7-.3-1.5-.5-2.2,0-.2-.3-.2-.4,0-.7,1-1,2.1-.7,3.3,0,.1.2,0,.2,0h0Z"/>
        <path class="st0" d="M46.5,57.5c-.8-.3-1.6-.5-2.3-1-.8-.4-1.6-1-2.3-1.6,0,0-.2,0,0,.1,1.2,1.2,3.1,2.8,4.9,2.8,0-.2-.1-.3-.2-.5Z"/>
        <path class="st0" d="M46.3,55.7c-.5,0-.9-.2-1.3-.3-1-.4-1.9-1-2.8-1.5,0,0,0,0,0,0,1.1.8,2.6,2.1,4.2,2.3,0-.2,0-.3,0-.5h0Z"/>
        <path class="st0" d="M45.5,54.1c-.6-.2-1.2-.5-1.8-.8,0,0-.2,0,0,.2.6.4,1.4.9,2.1,1.2,0-.2-.2-.3-.3-.5h0Z"/>
        <path class="st0" d="M38.3,39.8c-.5-2.2,0-4.1.2-6.3,0-.2-.3-.3-.4-.1-.9,1.9-.8,4.5-.2,6.5,0,.2.4.1.3,0h0Z"/>
        <path class="st0" d="M53.8,33.6c2.3,2.2,4.8,4,6.7,6.5,0,0,.2,0,.2,0-1.5-2.7-4.3-4.8-6.8-6.6,0,0-.1,0,0,.1h0Z"/>
        <path class="st0" d="M64.7,19.8c3.4.9,7.1,1.2,10.6,1.4,3.6.2,7.4.4,11,0,0,0,0,0,0,0-1.7,0-3.3-.2-5-.2s-3.7-.1-5.6-.2c-3.7-.2-7.3-.7-11-1,0,0,0,0,0,0h0Z"/>
        <path class="st0" d="M100.6,19.3c1.2.5,2.4,1,3.5,1.5.9.4,1.8,1,2.8,1.2.2,0,.3-.2.2-.3-.8-.7-1.9-.9-2.9-1.2l-3.7-1.2s0,0,0,0h0Z"/>
        <path class="st0" d="M110,18.8c2.3-.2,5.1-.2,7.2-1.3.1,0,0-.3,0-.2-1.2,0-2.3.5-3.4.7-1.2.3-2.4.5-3.7.7,0,0,0,.1,0,.1h0Z"/>
        <path class="st0" d="M123.5,18.9c6.1,4.4,7,12.5,6.8,19.4,0,0,0,0,0,0,.5-6.8-.9-15.2-6.9-19.4,0,0,0,0,0,0h0Z"/>
        <path class="st0" d="M113.1,93.2v.2h1.1c.3-.7.1-1.6,0-2.3-.2-1-.6-2.1-1.1-2.9,0,0-.1,0-.1,0,0,.7.2,1.5.3,2.1.2,1.1,0,1.8-.1,2.9h0Z"/>
        <path class="st0" d="M126,92.9c0,.2,0,.3.1.5h.7c0,0,0-.1,0-.2.4-2.1-.2-4.4-1.7-5.9h0c.2,1.9,1.2,3.7.8,5.7h0Z"/>
        <path class="st0" d="M41.3,50.5c-.7-1-1.3-1.8-1.8-2.9-.5-1.1-.7-2.2-1.1-3.3,0-.1-.3-.1-.2,0,.3,2.1,1.2,5,2.9,6.3,0,0,.2,0,.1,0h0Z"/>
        <path class="st0" d="M116.7,24.4c.5.2.9.5,1.4.7,0,0,0,0,0,0,0-.8-.3-1.7-.5-2.5,0-.2-.4-1.7,0-1.7.5,0,.9.1,1.4.2,1.7.5,2.9,1.9,4.3,2.9,0,0,.2,0,.2-.1-1.3-1.8-3.8-3.4-6.1-3.1,0,0,0,0,0,0,.1.8.3,1.6.5,2.5,0,.4.2.7.2,1.1.2,1-1.1,0-1.2,0,0,0,0,0,0,0h0Z"/>
        <path class="st0" d="M95.4,57.2c-.1,0-.2,0-.3.1-1.4.6-2.8,1.1-4.3,1.4,0,0,0,0,0,0,1.3-.1,2.6-.4,3.8-.8.3,0,.7-.1,1-.2-.1-.2-.2-.4-.3-.6Z"/>
        <path class="st0" d="M54.3,91.6c-.4-1.1-.5-2.7-1.5-3.4,0,0-.2,0-.2.1.2.5.5,1.1.8,1.6.3.6.5,1.2.8,1.7,0,0,.2,0,.1,0h0Z"/>
        <path class="st0" d="M65.1,91.8c-.4-1.1-.7-2.2-1.6-3,0,0-.2,0-.1,0,.5,1,1.1,2,1.5,3,0,0,.2,0,.2,0h0Z"/>
        <path class="st0" d="M125.8,91.4c-.1-1.1-.5-2.4-1.1-3.3,0,0-.2,0-.2,0,.3,1.1,1,2.1,1.2,3.2,0,0,.1,0,.1,0h0Z"/>
        <path class="st0" d="M112.8,91c-.2-.8-.2-1.7-.6-2.3,0,0-.2,0-.2,0,.2.8.3,1.6.5,2.3,0,.2.3,0,.2,0h0Z"/>
        <path class="st0" d="M65.3,84c-.4-1.3-.7-2.6-1-3.9-.3-1.4-.4-2.9-.5-4.4,0,0,0,0,0,0-.2,2.8.6,5.7,1.6,8.3,0,0,0,0,0,0h0Z"/>
        <path class="st0" d="M55.4,84.4c-.5-2-.7-4-1-6,0-.1-.2,0-.2,0-.2,2,.7,4.1,1.2,6,0,0,0,0,0,0h0Z"/>
      </g>
      <g>
        <path class="st0" d="M37.5,17.6c-.1-1.1-.5-2.2-.9-3.2l-.6.3c.4,1,.8,2,.9,3.1h.7c0,0,0,0,0,0ZM29.9,40.6h0c0,0,.6,0,.6,0,0-.4,0-.9.1-1.3h-.6c0,.4-.1.8-.1,1.2h0s.6,0,.6,0h0c0,0-.7,0-.7,0h0ZM30.9,37.4c.2-1.1.4-2.2.6-3.2l-.6-.2c-.2,1.1-.5,2.2-.6,3.3h.6ZM32.1,32.3c.3-1,.7-2,1.2-3h0l-.6-.3c-.6.9-1,2.1-1.3,3.1l.6.2h0ZM34.4,27.7c.6-.9,1.2-1.9,1.7-2.9l-.6-.3c-.4,1-1,1.9-1.7,2.8l.5.4h0ZM36.9,22.9c.4-1.1.6-2.2.7-3.3h-.7c0,1-.3,2.1-.7,3.1l.6.2h0Z"/>
        <path class="st0" d="M102.3,45.2h.2s.4,0,.4,0h.4s.4,0,.4,0h.4s.4,0,.4,0h.4s.4,0,.4,0v-.7c0,0-.4,0-.4,0h-.4s-.4,0-.4,0h-.4s-.4,0-.4,0h-.4s-.4,0-.4,0h-.2s0,.6,0,.6h0ZM34.2,47.5h0s.2,0,.2,0h.2s.2,0,.2,0h.2s.2,0,.2,0h.2s.2,0,.2,0h.2s.2,0,.2,0h.2s.2,0,.2,0h.2s.2,0,.2,0h.2s.2,0,.2,0h.2s.2,0,.2,0h.2s-.2-.7-.2-.7h-.2s-.2,0-.2,0h-.2s-.2,0-.2,0h-.2s-.2,0-.2,0h-.2s-.2,0-.2,0h-.2s-.2,0-.2,0h-.2s-.2,0-.2,0h-.2s-.2,0-.2,0h-.2s-.2,0-.2,0h-.2s-.2,0-.2,0h0l.2.7h0ZM39.3,46.2h.1s.2,0,.2,0h.2s.2,0,.2,0h.2s.2,0,.2,0h.2s.2,0,.2,0h.2s.2,0,.2,0h.2s.2,0,.2,0h.2s.2,0,.2,0h.2s.2,0,.2,0h.2s-.1-.7-.1-.7h-.2s-.2,0-.2,0h-.2s-.2,0-.2,0h-.2s-.2,0-.2,0h-.2s-.2,0-.2,0h-.2s-.2,0-.2,0h-.2s-.2,0-.2,0h-.2s-.2,0-.2,0h-.2s-.2,0-.2,0h-.1s.1.7.1.7h0ZM44.5,45.2h.1s.2,0,.2,0h.2s.2,0,.2,0h.2s.2,0,.2,0h.2s.2,0,.2,0h.2s.2,0,.2,0h.2s.2,0,.2,0h.2s.2,0,.2,0h.2s0,0,0,0v-.7h-.4s-.2,0-.2,0h-.2s-.2,0-.2,0h-.2s-.2,0-.2,0h-.2s-.2,0-.2,0h-.2s-.2,0-.2,0h-.2s-.2,0-.2,0h-.2s-.2,0-.2,0h-.1s.1.7.1.7h0ZM49.7,44.4h.2s.2,0,.2,0h.2s.2,0,.2,0h.2s.2,0,.2,0h.2s.2,0,.2,0h.2s.2,0,.2,0h.2s.2,0,.2,0h.2s.2,0,.2,0v-.7c0,0-.3,0-.3,0h-.2s-.2,0-.2,0h-.2s-.2,0-.2,0h-.2s-.2,0-.2,0h-.2s-.2,0-.2,0h-.2s-.2,0-.2,0h-.2s-.2,0-.2,0h-.2s0,.7,0,.7h0ZM54.9,43.8h.3s.2,0,.2,0h.2s.2,0,.2,0h.3s.3,0,.3,0h.3s.3,0,.3,0h.3s.3,0,.3,0h.3s.3,0,.3,0h.1v-.7h-.4s-.3,0-.3,0h-.3s-.3,0-.3,0h-.3s-.3,0-.3,0h-.3s-.3,0-.3,0h-.3s-.3,0-.3,0h-.2s-.2,0-.2,0h0v.7h0,0ZM60.2,43.5h.3s.3,0,.3,0h.3s.3,0,.3,0h.3s.3,0,.3,0h.3s.3,0,.3,0h.3s.3,0,.3,0h.3s.2,0,.2,0v-.7h-.5s-.3,0-.3,0h-.3s-.3,0-.3,0h-.3s-.3,0-.3,0h-.3s-.3,0-.3,0h-.3s-.3,0-.3,0h-.3s0,0,0,0v.7h0ZM65.4,43.2h.4s.3,0,.3,0h.3s.3,0,.3,0h.3s.3,0,.3,0h1.4v-.7h-2.6s-.3,0-.3,0h-.3s-.2,0-.2,0v.7h0,0ZM70.7,43.2h3.3v-.7s0,0,0,0h-3.2v.7h0ZM76,43.3h.6s.3,0,.3,0h.3s.3,0,.3,0h.3s.3,0,.3,0h.3s.3,0,.3,0h.3s0-.6,0-.6h-.6s-.3,0-.3,0h-.3s-.3,0-.3,0h-.3s-.3,0-.3,0h-.3s-.3,0-.3,0h-.3s0,.6,0,.6h0ZM81.2,43.5h.5s.4,0,.4,0h.4s.4,0,.4,0h.4s.4,0,.4,0h.4s.4,0,.4,0h.2v-.6s-.2,0-.2,0h-.4s-.4,0-.4,0h-.4s-.4,0-.4,0h-.4s-.4,0-.4,0h-.4s-.3,0-.3,0h-.2v.7h0ZM86.5,43.8h.4s.4,0,.4,0h.4s.4,0,.4,0h.4s.4,0,.4,0h.4s.4,0,.4,0h.3s0-.6,0-.6h-.3s-.4,0-.4,0h-.4s-.4,0-.4,0h-.4s-.4,0-.4,0h-.4s-.4,0-.4,0h-.4s0,.6,0,.6h0ZM91.8,44.2h.5s.4,0,.4,0h.4s.4,0,.4,0h.4s.4,0,.4,0h.4s.4,0,.4,0h0v-.7c0,0,0,0,0,0h-.4s-.4,0-.4,0h-.4s-.4,0-.4,0h-.4s-.4,0-.4,0h-.4s-.4,0-.4,0h0v.7h0,0ZM97,44.6h.4s.4,0,.4,0h.4s.4,0,.4,0h.4s.4,0,.4,0h.4s.3,0,.3,0v-.7c0,0-.3,0-.3,0h-.4s-.4,0-.4,0h-.4s-.4,0-.4,0h-.4s-.4,0-.4,0h-.4s0,0,0,0v.7c0,0,0,0,0,0Z"/>
        <path class="st0" d="M58.8,54.8h0c0,.1,0,.3,0,.3v.2c0,0-.1.2-.1.2v.2c0,0-.2.2-.2.2v.2c0,0-.1.2-.1.2v.2c0,0-.2.2-.2.2v.2c0,0-.2.2-.2.2v.2c0,0-.2.2-.2.2v.2c0,0,.5.2.5.2v-.2c0,0,.2-.2.2-.2v-.2c0,0,.2-.2.2-.2v-.2c0,0,.2-.2.2-.2v-.2c0,0,.2-.2.2-.2v-.2c0,0,.2-.2.2-.2v-.2c0,0,.1-.2.1-.2v-.2c0,0,.1-.2.1-.2h0c0-.1-.6-.4-.6-.4h0ZM58.3,17.1v.2c0,0,.2.2.2.2v.2c0,0,.7-.3.7-.3v-.2c0,0-.2-.2-.2-.2v-.2c0,0-.7.3-.7.3h0ZM59.5,19.4h0s0,.2,0,.2v.2c0,0,.2.2.2.2v.2c0,0,.2.2.2.2v.2c0,0,.1.2.1.2v.2c0,0,.1.2.1.2h0c0,.1,0,.3,0,.3h0c0,.1,0,.3,0,.3h0c0,.1,0,.3,0,.3h0c0,.1,0,.3,0,.3h0c0,.1,0,.3,0,.3l.6-.2h0c0-.1,0-.3,0-.3h0c0-.1,0-.3,0-.3v-.2c0,0-.1-.2-.1-.2v-.2c0,0-.1-.2-.1-.2v-.2c0,0-.1-.2-.1-.2v-.2c0,0-.1-.2-.1-.2v-.2c0,0-.1-.2-.1-.2v-.2c0,0-.2-.2-.2-.2v-.2c0,0-.2-.2-.2-.2v-.2c0,0-.1,0-.1,0l-.6.3h0ZM61.5,24.2h0c0,.1,0,.3,0,.3h0c0,.1,0,.3,0,.3h0c0,.1,0,.3,0,.3h0c0,.1,0,.3,0,.3h0c0,.1,0,.3,0,.3h0c0,.1,0,.3,0,.3h0c0,.1,0,.3,0,.3h0c0,.1,0,.3,0,.3h0c0,.1,0,.3,0,.3h0c0,.1,0,.3,0,.3h0c0,.1,0,.3,0,.3l.6-.2h0c0-.1,0-.3,0-.3h0c0-.1,0-.3,0-.3h0c0-.1,0-.3,0-.3h0c0-.1,0-.3,0-.3h0c0-.1,0-.3,0-.3h0c0-.1,0-.3,0-.3h0c0-.1,0-.3,0-.3h0c0-.1,0-.3,0-.3h0c0-.1,0-.3,0-.3h0c0-.1,0-.3,0-.3h0c0-.1,0-.3,0-.3l-.6.2h0ZM62.9,29.3h0c0,0,0,.2,0,.2h0c0,.1,0,.3,0,.3h0c0,.1,0,.3,0,.3h0c0,.1,0,.3,0,.3h0c0,.1,0,.3,0,.3h0c0,.1,0,.3,0,.3h0c0,.1,0,.3,0,.3h0c0,.1,0,.3,0,.3h0v.3h0v.3h0v.3h0v.2h.7c0-.1,0-.3,0-.3h0c0-.1,0-.3,0-.3h0c0-.1,0-.3,0-.3h0c0-.1,0-.3,0-.3h0c0-.1,0-.3,0-.3h0c0-.1,0-.3,0-.3h0c0-.1,0-.3,0-.3h0c0-.1,0-.3,0-.3h0c0-.1,0-.3,0-.3h0c0-.1,0-.3,0-.3h0c0-.1,0-.3,0-.3h0v-.2h-.7c0,.1,0,0,0,0ZM63.4,34.5v.2h0v.3h0v.3h0v.3h0v.3h0v.3h0v.3h0v.3h0v.3h0v.3h0v.4s0,0,0,0h.7c0,0,0,0,0,0v-.2s0-.2,0-.2v-.2s0-.2,0-.2v-.2s0-.2,0-.2v-.2s0-.2,0-.2v-.2s0-.2,0-.2v-.2s0-.1,0-.1v-.2s0-.1,0-.1h0v-.3h0v-.3h0v-.3h0v-.3h0s-.7,0-.7,0h0ZM63,39.7h0s0,.2,0,.2v.2s0,.2,0,.2v.2s0,.2,0,.2v.2s0,.2,0,.2v.2s0,.2,0,.2v.2s0,.2,0,.2v.2s0,.2,0,.2v.2s0,.2,0,.2v.2s0,.2,0,.2v.2s0,.2,0,.2v.2s0,0,0,0h.6c0,.1,0,0,0,0v-.2s0-.2,0-.2v-.2s0-.2,0-.2v-.2s0-.2,0-.2v-.2s0-.2,0-.2v-.2s0-.2,0-.2v-.2s0-.2,0-.2v-.2s0-.2,0-.2v-.2s0-.2,0-.2v-.2s0-.2,0-.2v-.2s0-.2,0-.2h0s-.7-.1-.7-.1h0ZM62,44.8h0c0,0,0,.2,0,.2v.2s0,.2,0,.2v.2s0,.2,0,.2v.2s0,.2,0,.2v.2s0,.2,0,.2v.2s0,.2,0,.2v.2s0,.2,0,.2v.2s0,.2,0,.2v.2s0,.2,0,.2v.2h0l.6.2h0v-.2s0-.2,0-.2v-.2s0-.2,0-.2v-.2s0-.2,0-.2v-.2s0-.2,0-.2v-.2s0-.2,0-.2v-.2s0-.2,0-.2v-.2s0-.2,0-.2v-.2s0-.2,0-.2v-.2s0-.2,0-.2h0c0,0-.6-.2-.6-.2h0ZM60.5,49.8h0c0,0,0,.3,0,.3v.2c0,0-.1.2-.1.2v.2c0,0-.1.2-.1.2v.2c0,0-.1.2-.1.2v.2c0,0-.1.2-.1.2v.2c0,0-.1.2-.1.2v.2c0,0-.1.2-.1.2v.2c0,0-.1.2-.1.2v.2h0l.6.2h0v-.2c0,0,.1-.2.1-.2v-.2c0,0,.1-.2.1-.2v-.2c0,0,.1-.2.1-.2v-.2c0,0,.1-.2.1-.2v-.2c0,0,.1-.2.1-.2v-.2c0,0,.1-.2.1-.2v-.2c0,0,.1-.2.1-.2v-.2c0,0,.1-.2.1-.2h0c0,0-.6-.3-.6-.3h0Z"/>
        <path class="st0" d="M106.8,53.3h0v.2c0,0,.2.2.2.2v.2c0,0,.2.2.2.2v.2c0,0,.2.2.2.2v.2c0,0,.2.2.2.2v.2c0,0,.2.2.2.2v.2c0,0,.2.2.2.2v.2c0,0,.7-.2.7-.2v-.2c0,0-.2-.2-.2-.2v-.2c0,0-.2-.2-.2-.2v-.2c0,0-.2-.2-.2-.2v-.2c0,0-.2-.2-.2-.2v-.2c0,0-.2-.2-.2-.2v-.2c0,0-.2-.2-.2-.2v-.2h0l-.6.2h0ZM102.8,19h.1c0,0,.1.2.1.2h.1c0,0,.1.2.1.2h.1c0,0,.1.2.1.2h.1c0,0,.1.2.1.2h0c0,0,0,.2,0,.2h0c0,0,0,.2,0,.2h0c0,0,0,.2,0,.2h0c0,0,0,.2,0,.2h0c0,0,0,.2,0,.2h0c0,.1.5-.3.5-.3h0s0-.1,0-.1h0c0-.1,0-.2,0-.2h0c0-.1,0-.2,0-.2h0c0-.1,0-.2,0-.2h0c0-.1,0-.2,0-.2h-.1c0,0-.1-.2-.1-.2h-.1c0-.1-.1-.2-.1-.2h-.1c0,0-.1-.2-.1-.2h-.1c0,0-.1-.2-.1-.2h-.1c0,0-.1-.2-.1-.2l-.4.5h0ZM105.9,22.2h0c0,.1,0,.2,0,.2h0c0,0,0,.2,0,.2h0c0,0,0,.2,0,.2h0c0,.1,0,.2,0,.2h0c0,.1,0,.2,0,.2h0c0,0,0,.2,0,.2h0c0,.1,0,.2,0,.2h0c0,.1,0,.2,0,.2h0c0,.1,0,.2,0,.2h0c0,.1,0,.2,0,.2h0c0,.1,0,.2,0,.2h0c0,.1,0,.2,0,.2h0c0,.1,0,.2,0,.2h0c0,.1,0,.2,0,.2h0v.2h0s.7,0,.7,0h0c0,0,0-.2,0-.2h0c0-.1,0-.2,0-.2h0c0-.1,0-.2,0-.2h0c0-.1,0-.2,0-.2h0c0-.1,0-.2,0-.2h0c0-.1,0-.2,0-.2h0c0-.1,0-.2,0-.2h0c0-.1,0-.2,0-.2h0c0-.1,0-.2,0-.2h0c0-.1,0-.2,0-.2h0c0-.1,0-.2,0-.2h0c0-.1,0-.2,0-.2h0c0-.1,0-.2,0-.2h0c0-.1,0-.2,0-.2h0c0-.1,0-.2,0-.2h0c0-.1-.6.2-.6.2h0ZM106.9,27.1h0v.2h0c0,.1,0,.2,0,.2h0c0,.1,0,.2,0,.2h0c0,.1,0,.2,0,.2h0c0,.1,0,.2,0,.2h0c0,.1,0,.2,0,.2h0c0,.1,0,.2,0,.2h0c0,.1,0,.2,0,.2h0c0,.1,0,.2,0,.2h0c0,.1,0,.2,0,.2h0c0,.1,0,.2,0,.2h0c0,.1,0,.2,0,.2h0c0,.1,0,.2,0,.2h0v.2h.6c0,.1,0,0,0,0h0c0-.1,0-.3,0-.3h0c0-.1,0-.3,0-.3h0c0-.1,0-.2,0-.2h0c0-.1,0-.2,0-.2h0c0-.1,0-.2,0-.2h0c0-.1,0-.2,0-.2h0c0-.1,0-.2,0-.2h0c0-.1,0-.2,0-.2h0c0-.1,0-.2,0-.2h0c0-.1,0-.2,0-.2h0c0-.1,0-.2,0-.2h0c0-.1,0-.2,0-.2h0c0-.1,0-.2,0-.2h0c0,0-.7,0-.7,0h0ZM106.2,32.3h0c0,0,0,.2,0,.2h0c0,.1,0,.3,0,.3h0c0,.1,0,.3,0,.3h0c0,.1,0,.3,0,.3h0c0,.1,0,.3,0,.3h0c0,.1,0,.3,0,.3h0c0,.1,0,.3,0,.3v.2s0,.1,0,.1v.2s0,.2,0,.2v.2s0,.2,0,.2v.2s0,.2,0,.2v.2s0,0,0,0h.6c0,0,0,0,0,0v-.2s0-.2,0-.2v-.2s0-.2,0-.2v-.2s0-.1,0-.1v-.2s0-.1,0-.1h0c0-.1,0-.3,0-.3h0c0-.1,0-.3,0-.3h0c0-.1,0-.3,0-.3h0c0-.1,0-.3,0-.3h0c0-.1,0-.3,0-.3h0c0-.1,0-.3,0-.3h0c0-.1,0-.3,0-.3h0c0,0-.6-.2-.6-.2h0ZM105.4,37.6v.2s0,.2,0,.2v.2s0,.2,0,.2v.2s0,.2,0,.2v.3s0,.2,0,.2v.2s0,.2,0,.2v.2s0,.2,0,.2v.2s0,.2,0,.2v.2s0,.2,0,.2v.2s0,.2,0,.2h0c0,.1.7.2.7.2h0c0-.1,0-.3,0-.3v-.3s0-.2,0-.2v-.2s0-.2,0-.2v-.2s0-.2,0-.2v-.2s0-.2,0-.2v-.2s0-.2,0-.2v-.2s0-.2,0-.2v-.2s0-.2,0-.2v-.2s0-.2,0-.2v-.2s-.6,0-.6,0h0ZM105.1,42.9h0v.6s0,.2,0,.2v.2s0,.2,0,.2v.2s0,.2,0,.2v.2s0,.2,0,.2v.2s0,.2,0,.2v.2s0,.2,0,.2v.2s0,.2,0,.2v.2s.7,0,.7,0v-.2s0-.2,0-.2v-.2s0-.2,0-.2v-.2s0-.2,0-.2v-.4s0-.2,0-.2v-.2s0-.2,0-.2v-.2s0-.2,0-.2v-.2s0-.2,0-.2v-.2s0-.2,0-.2h0s-.7,0-.7,0h0ZM105.6,48.2h0c0,0,0,.3,0,.3v.2s0,.2,0,.2v.2s0,.2,0,.2v.2s0,.2,0,.2v.2c0,0,.1.2.1.2v.2c0,0,.1.2.1.2v.2c0,0,.1.2.1.2v.2c0,0,0,.1,0,.1l.6-.2h0c0-.1,0-.4,0-.4v-.2c0,0-.1-.2-.1-.2v-.2c0,0-.1-.2-.1-.2v-.2c0,0-.1-.2-.1-.2v-.2c0,0,0-.2,0-.2v-.2s0-.2,0-.2v-.2s0-.2,0-.2v-.2s0,0,0,0h-.7c0,.1,0,.1,0,.1Z"/>
        <path class="st0" d="M90.9,56h0c0,.1,0,.3,0,.3v.2c0,0,.1.2.1.2v.2c0,0,.1.2.1.2v.2c0,0,.1.2.1.2v.2c0,0,.1.2.1.2v.2c0,0,.1.2.1.2v.2c0,0,.1.2.1.2v.2c0,0,.2.2.2.2l.6-.2v-.2c0,0-.1-.2-.1-.2v-.2c0,0-.1-.2-.1-.2v-.2c0,0-.1-.2-.1-.2v-.2c0,0-.1-.2-.1-.2v-.2c0,0-.1-.2-.1-.2v-.2c0,0-.1-.2-.1-.2v-.2c0,0-.1-.2-.1-.2v-.2c0,0,0-.1,0-.1l-.6.2h0ZM89.9,19.9h0s0,.2,0,.2h0c0,.1,0,.2,0,.2h0c0,.1,0,.2,0,.2h0c0,.1,0,.2,0,.2h0c0,.1,0,.3,0,.3h0c0,.1,0,.2,0,.2h0c0,.1,0,.3,0,.3h0c0,.1,0,.2,0,.2h0c0,.1,0,.3,0,.3h0c0,.1,0,.3,0,.3h0c0,.1,0,.3,0,.3h0c0,.1,0,.2,0,.2l.6-.2h0c0,0,0-.2,0-.2h0c0-.1,0-.3,0-.3h0c0-.1,0-.3,0-.3h0c0-.1,0-.3,0-.3h0c0-.1,0-.3,0-.3h0c0-.1,0-.3,0-.3h0c0-.1,0-.3,0-.3h0c0-.1,0-.3,0-.3h0c0-.1,0-.3,0-.3h0c0-.1,0-.3,0-.3h0c0-.1,0-.3,0-.3h0c0-.1,0-.2,0-.2l-.6.4h0ZM91.9,24.6h0s0,.1,0,.1h0c0,.1,0,.3,0,.3h0c0,.1,0,.3,0,.3h0c0,.1,0,.3,0,.3h0c0,.1,0,.3,0,.3h0c0,.1,0,.3,0,.3h0c0,.1,0,.3,0,.3h0c0,.1,0,.3,0,.3h0c0,.1,0,.3,0,.3h0c0,.1,0,.3,0,.3h0v.3h0v.3h0c0,.1.7.1.7.1h0v-.3h0v-.3h0c0-.1,0-.3,0-.3h0c0-.1,0-.3,0-.3h0c0-.1,0-.3,0-.3h0c0-.1,0-.3,0-.3h0c0-.1,0-.3,0-.3h0c0-.1,0-.3,0-.3h0c0-.1,0-.3,0-.3h0c0-.1,0-.3,0-.3h0c0-.1,0-.3,0-.3h0c0-.1,0-.3,0-.3h0s-.7.1-.7.1h0ZM92.1,29.8h0s0,.2,0,.2h0c0,.1,0,.3,0,.3h0c0,.1,0,.3,0,.3h0c0,.1,0,.3,0,.3h0c0,.1,0,.3,0,.3h0c0,.1,0,.3,0,.3h0c0,.1,0,.3,0,.3h0c0,.1,0,.3,0,.3h0c0,.1,0,.3,0,.3v.2s0,.2,0,.2v.2s0,.2,0,.2v.2s0,0,0,0h.6c0,0,0,0,0,0v-.2s0-.2,0-.2v-.2s0-.2,0-.2v-.2s0-.2,0-.2v-.2s0-.1,0-.1h0c0-.1,0-.3,0-.3h0c0-.1,0-.3,0-.3h0c0-.1,0-.3,0-.3h0c0-.1,0-.3,0-.3h0c0-.1,0-.3,0-.3h0c0-.1,0-.3,0-.3h0c0-.1,0-.3,0-.3h0s-.7,0-.7,0h0ZM91.4,35h0c0,.1,0,.3,0,.3v.2s0,.2,0,.2v.2s0,.2,0,.2v.2s0,.2,0,.2v.2s0,.2,0,.2v.2s0,.2,0,.2v.2s0,.2,0,.2v.2s0,.2,0,.2v.2s0,.2,0,.2v.2s0,.2,0,.2v.2s0,0,0,0h.6c0,.1,0,0,0,0v-.2s0-.2,0-.2v-.2s0-.2,0-.2v-.2s0-.2,0-.2v-.2s0-.2,0-.2v-.2s0-.2,0-.2v-.2s0-.2,0-.2v-.2s0-.2,0-.2v-.2s0-.2,0-.2v-.2s0-.2,0-.2v-.2s0-.2,0-.2h0c0-.1-.7-.2-.7-.2h0ZM90.6,40.2h0c0,.1,0,.3,0,.3v.2s0,.2,0,.2v.2s0,.2,0,.2v.2s0,.2,0,.2v.2s0,.2,0,.2v.2s0,.2,0,.2v.2s0,.2,0,.2v.2s0,.2,0,.2v.2s0,.2,0,.2v.2s0,.2,0,.2h.7c0,0,0,0,0,0v-.2s0-.2,0-.2v-.2s0-.2,0-.2v-.2s0-.2,0-.2v-.2s0-.2,0-.2v-.2s0-.2,0-.2v-.2s0-.2,0-.2v-.2s0-.2,0-.2v-.2s0-.2,0-.2v-.2s0-.2,0-.2h0c0-.1-.7-.2-.7-.2h0ZM89.9,45.5h0c0,.1,0,.3,0,.3v.4s0,.2,0,.2v.2s0,.2,0,.2v2h0c0,.1.7.1.7.1h0v-2.1s0-.2,0-.2v-.2s0-.2,0-.2v-.2s0-.2,0-.2v-.2s0-.1,0-.1h-.7s0,0,0,0ZM90,50.8h0c0,0,0,.3,0,.3v.2s0,.2,0,.2v.2s0,.2,0,.2v.2s0,.2,0,.2v.2s0,.2,0,.2v.2s0,.2,0,.2v.2s0,.2,0,.2v.2s0,.2,0,.2v.2s0,.1,0,.1h.7c0-.1,0-.2,0-.2v-.2s0-.2,0-.2v-.2s0-.2,0-.2v-.2s0-.2,0-.2v-.2s0-.2,0-.2v-.2s0-.2,0-.2v-.2s0-.2,0-.2v-.2s0-.2,0-.2v-.2s0-.2,0-.2h0c0,0-.7,0-.7,0h0Z"/>
        <path class="st0" d="M77.2,39.4h0c0,0,0,.2,0,.2h0c0,.1,0,.2,0,.2h0c0,.1,0,.2,0,.2h0c0,.1,0,.2,0,.2h0c0,.1,0,.2,0,.2h0c0,.1,0,.2,0,.2h0c0,.1,0,.3,0,.3h0c0,.1,0,.2,0,.2h0c0,.1,0,.2,0,.2h0c0,.1,0,.2,0,.2h0c0,.1,0,.3,0,.3h0c0,.1,0,.2,0,.2h0c0,.1,0,.3,0,.3l.6.2h0c0-.1,0-.3,0-.3h0c0-.1,0-.3,0-.3h0c0-.1,0-.3,0-.3h0c0-.1,0-.3,0-.3h0c0-.1,0-.3,0-.3h0c0-.1,0-.3,0-.3h0c0-.1,0-.3,0-.3h0c0-.1,0-.3,0-.3h0c0-.1,0-.3,0-.3h0c0-.1,0-.2,0-.2h0c0-.1,0-.2,0-.2h0c0-.1,0-.3,0-.3h0v-.2h-.6c0-.1,0,0,0,0ZM74.8,19.5c.8.6,1.4,1.6,1.8,2.6l.6-.3c-.5-1-1-2-1.9-2.8l-.4.5h0ZM77.2,23.9h0c0,0,0,.1,0,.1h0c0,0,0,.2,0,.2h0c0,0,0,.2,0,.2h0c0,0,0,.2,0,.2h0c0,0,0,.2,0,.2h0c0,0,0,.2,0,.2h0c0,0,0,.2,0,.2h0c0,0,0,.2,0,.2h0c0,0,0,.2,0,.2h0c0,0,0,.2,0,.2h0c0,0,0,.2,0,.2h0v.2h0v.2h0v.2h0v.2h0v.2h0v.2h0v.2h0c0,.1.7,0,.7,0h0s0-.1,0-.1h0c0-.1,0-.2,0-.2h0c0,0,0-.2,0-.2h0c0,0,0-.2,0-.2h0c0,0,0-.2,0-.2h0v-.2h0v-.2h0c0,0,0-.2,0-.2h0v-.2h0c0,0,0-.2,0-.2h0c0,0,0-.2,0-.2h0c0,0,0-.2,0-.2h0c0,0,0-.2,0-.2h0c0,0,0-.2,0-.2h0c0,0,0-.2,0-.2h0c0,0,0-.2,0-.2h0c0,0,0-.2,0-.2h0c0,0,0-.2,0-.2h0c0,0,0-.2,0-.2l-.6.2h0ZM77.9,29h0v.2h0v.2h0v.2h0v.2h0v.2h0v.2h0v.2h0v.2h0v.7h0v.2h0v.2h0v.2h0v.2h0c0,0,.7,0,.7,0h0v-.2h0v-.2h0v-.2h0v-.2h0v-.2h0v-.5h0v-.3h0v-.2h0v-.2h0v-.2h0v-.2h0v-.2h0v-.2h0c0-.1-.7-.1-.7-.1h0ZM77.8,34.2h0v.2h0v.2h0v.2h0v.2h0v.2h0v.2h0v.2h0v.2h0v.2h0v.2h0c0,.1,0,.2,0,.2h0c0,.1,0,.2,0,.2h0c0,.1,0,.2,0,.2h0v.2h.6c0,0,0,0,0,0h0c0-.1,0-.2,0-.2h0c0-.1,0-.2,0-.2h0c0-.1,0-.2,0-.2h0c0-.1,0-.2,0-.2h0c0-.1,0-.2,0-.2h0c0-.1,0-.2,0-.2h0c0-.1,0-.2,0-.2h0c0-.1,0-.2,0-.2h0c0-.1,0-.2,0-.2h0c0-.1,0-.2,0-.2h0c0-.1,0-.2,0-.2h0c0-.1,0-.2,0-.2h0c0-.1,0-.2,0-.2h0c0-.1-.7-.2-.7-.2h0Z"/>
        <path class="st0" d="M56.5,65.5h0s0,0,0,0h0s0,0,0,0h0s0,0,0,0h0s0,0,0,0h0s0,0,0,0h0s0,0,0,0h0s0,0,0,0h0s0,0,0,0h0s0,0,0,0h0s0,0,0,0h0s0,0,0,0h0c0,0,0-.1,0-.1h0c0,0,0-.1,0-.1h0c0,0,0-.1,0-.1h0c0,0,0-.1,0-.1h0c0,0,0-.1,0-.1h0c0,0,0-.1,0-.1h0c0,0,0-.1,0-.1h0s0,0,0,0h0s0-.1,0-.1h0c0,0,0-.1,0-.1h0c0,0,0-.1,0-.1h0c0,0,0-.1,0-.1h0c0,0-.5-.5-.5-.5h0c0,0,0,.1,0,.1h0s0,.1,0,.1h0s0,0,0,0h0s0,0,0,0h0s0,0,0,0h0s0,0,0,0h0s0,0,0,0h0s0,0,0,0h0s0,0,0,0h0s0,0,0,0h0s0,0,0,0h0s0,0,0,0h0s0,0,0,0h0s0,0,0,0h0s0,0,0,0h0s0,0,0,0h0s0,0,0,0h0s0,0,0,0h0s0,0,0,0h0s0,0,0,0h0s0,0,0,0h0s0,0,0,0h0s0,0,0,0h0l.3.6h-.2ZM48.3,66.5c0,.4.7.5,1,.5v-.7c0,0-.3,0-.5-.2,0,0,.1.1.1.3h-.7ZM51.4,67.1c1,0,2.4-.2,3.3-.7l-.2-.6c-1.1.2-2,.6-3.1.7v.7s0,0,0,0Z"/>
        <path class="st0" d="M62.7,64.5c.6-.4,1.1-1,1.7-1.5l-.5-.4c-.4.6-1.1,1-1.6,1.5h0s0,0,0,0h0s0,0,0,0h0s0,0,0,0h0s0,0,0,0h0s0,0,0,0h0s0,0,0,0h0s0,0,0,0h0s0,0,0,0h0s0,0,0,0h0s0,0,0,0h0s0,0,0,0h0s0,0,0,0h0s0,0,0,0h0s0,0,0,0h0s0,0,0,0h0s0,0,0,0h0s0,0,0,0h0s0,0,0,0h0s0,0,0,0h0s0,0,0,0h0s0,0,0,0h0s0,0,0,0h0s0,0,0,0h0s.3.6.3.6h0s0,0,0,0h0s0,0,0,0h0s0,0,0,0h0s0,0,0,0h0s0,0,0,0h0s0,0,0,0h0s0,0,0,0h0s0,0,0,0h0s0,0,0,0h0s0,0,0,0h0s0,0,0,0h0s0,0,0,0h0s0,0,0,0h0s0,0,0,0h0s0,0,0,0h0s0,0,0,0h0s0,0,0,0h0s0,0,0,0h0s0,0,0,0h0s0,0,0,0h0s0,0,0,0h0s0,0,0,0h0s0,0,0,0h0ZM57.8,66.7c.7-.2,1.5-.4,2.1-.7l-.2-.6c-.7.2-1.3.5-2,.6v.6Z"/>
        <path class="st0" d="M119.7,67.7c1.1-.4,2.1-.9,3-1.7l-.5-.5c-.8.7-1.8,1.2-2.7,1.6l.2.6h0ZM114.4,68.8c1.1,0,2.2-.3,3.3-.6l-.2-.6c-1,.3-2.1.5-3.2.5v.7c0,0,0,0,0,0Z"/>
        <path class="st0" d="M125.1,67.6c1.1-.4,2.2-.9,3-1.6l-.4-.5c-.8.7-1.8,1.2-2.8,1.5l.2.6h0ZM122.9,68.3h.1s0,0,0,0h0s0,0,0,0h0s0,0,0,0l-.2-.6h0s0,0,0,0h0s0,0,0,0h0s0,0,0,0h0l.2.7h0Z"/>
        <path class="st0" d="M127.3,30.6h0c0,0,0,.2,0,.2h0c0,.1,0,.2,0,.2h0c0,.1,0,.2,0,.2h0c0,.1,0,.2,0,.2h0c0,.1,0,.3,0,.3h0c0,.1,0,.3,0,.3h0c0,.1,0,.3,0,.3h0c0,.1,0,.3,0,.3h0c0,.1,0,.3,0,.3h0c0,.1,0,.3,0,.3h0c0,.1,0,.3,0,.3h0c0,.1,0,.3,0,.3h.7v-.4s0-.2,0-.2v-.2s0-.2,0-.2v-.2s0-.2,0-.2v-.2s0-.1,0-.1h0c0-.1,0-.3,0-.3h0c0-.1,0-.3,0-.3h0c0-.1,0-.3,0-.3h0c0-.1,0-.3,0-.3h0c0-.1,0-.3,0-.3h0c0-.1,0-.3,0-.3h0c0-.1,0-.3,0-.3h0c0,0-.6.2-.6.2h0ZM105.8,44v-.5s0-.2,0-.2v-.2s0-.2,0-.2v-.2s0-.2,0-.2v-.2s0-.2,0-.2h-.6c0,0,0,0,0,0v.2s0,.2,0,.2v.2s0,.2,0,.2v.5s0,.3,0,.3v.3s.6,0,.6,0h0ZM106.2,40v-.2s0-.2,0-.2v-.2s0-.2,0-.2v-.2s0-.2,0-.2v-.2c0,0,.1-.2.1-.2v-.2c0,0,.1-.2.1-.2v-.2c0,0,.1-.2.1-.2v-.2c0,0,.1-.2.1-.2v-.2c0,0,0,0,0,0l-.6-.2h0s0,.2,0,.2v.2c0,0-.1.2-.1.2v.2c0,0-.1.2-.1.2v.2c0,0-.1.2-.1.2v.2c0,0-.1.2-.1.2v.2c0,0,0,.2,0,.2v.2c0,0,0,.2,0,.2v.2s0,.2,0,.2h.7c0,.1,0,.1,0,.1ZM107.6,35v-.2c0,0,.2-.2.2-.2v-.2c0,0,.2-.2.2-.2v-.2c0,0,.2-.2.2-.2v-.2c0,0,.2-.2.2-.2v-.2c0,0,.2-.2.2-.2v-.2c0,0,.2-.2.2-.2v-.2c0,0,.2-.2.2-.2v-.2c0,0,.2-.2.2-.2v-.2c0,0,.2-.1.2-.1h0l-.6-.4h0v.2c0,0-.2.2-.2.2v.2c0,0-.2.2-.2.2v.2c0,0-.2.2-.2.2v.2c0,0-.2.2-.2.2v.2c0,0-.2.2-.2.2v.2c0,0-.2.2-.2.2v.2c0,0-.2.2-.2.2v.2c0,0-.2.2-.2.2v.2c0,0-.2.2-.2.2l.6.3h0ZM110.2,30.5h0s.1-.2.1-.2h0c0-.1.1-.2.1-.2h.1c0-.1.1-.2.1-.2h.1c0-.1.1-.2.1-.2h.1c0-.1.1-.2.1-.2h.1c0-.1.1-.2.1-.2h.1c0-.1.1-.2.1-.2h.1c0-.1.1-.2.1-.2h.1c0-.1.1-.2.1-.2h.1c0,0,.1-.2.1-.2h.1c0,0,0-.1,0-.1l-.4-.5h0c0,0-.1.2-.1.2h-.1c0,.1-.1.2-.1.2h-.1c0,.1-.1.2-.1.2h-.1c0,.1-.1.2-.1.2h-.1c0,.1-.1.2-.1.2h-.1c0,.1-.1.2-.1.2h-.1c0,.1-.1.2-.1.2h-.1c0,.1-.1.2-.1.2h-.1c0,.1-.1.2-.1.2h-.1c0,.1-.1.2-.1.2h-.1c0,.1,0,.2,0,.2l.5.4h0ZM114.2,27.2h.1c0,0,.1-.1.1-.1h.1c0,0,.1-.1.1-.1h.1c0,0,.1-.1.1-.1h.1c0,0,.1-.1.1-.1h.1c0,0,.1-.1.1-.1h.1s.1,0,.1,0h.1s.1,0,.1,0h.1s.1,0,.1,0h.1s.1,0,.1,0h.1s.1,0,.1,0h.1s.1,0,.1,0h.1s.1,0,.1,0h0v-.6h-.3s-.1,0-.1,0h-.1s-.1,0-.1,0h-.1s-.1,0-.1,0h-.1s-.1,0-.1,0h-.1s-.1,0-.1,0h-.1s-.1,0-.1,0h-.1s-.1,0-.1,0h-.1c0,0-.1.1-.1.1h-.1c0,0-.1.1-.1.1h-.1c0,0-.1.1-.1.1h-.1c0,0-.1.1-.1.1h-.1c0,0-.1.1-.1.1l.3.6h0ZM119.1,25.8h1s.1,0,.1,0h.1s.1,0,.1,0h.1s.1,0,.1,0h.1s.1,0,.1,0h.1s.1,0,.1,0h.1s.1,0,.1,0h.1s.1,0,.1,0h.1s.1,0,.1,0h.1s.1,0,.1,0h.1s0,0,0,0l.2-.6h-.1s-.1,0-.1,0h-.1s-.1,0-.1,0h-.1s-.1,0-.1,0h-.1s-.1,0-.1,0h-.1s-.1,0-.1,0h-.1s-.1,0-.1,0h-.1s-.1,0-.1,0h-.1s-.1,0-.1,0h-.1s-.1,0-.1,0h-.1s-.1,0-.1,0h-.8v.7h0,0ZM124,26.9h.1c0,0,0,.1,0,.1h0c0,0,0,.1,0,.1h0c0,0,0,.1,0,.1h0c0,0,0,.1,0,.1h0c0,0,0,.1,0,.1h0c0,0,0,.1,0,.1h0c0,0,0,.1,0,.1h0c0,0,0,.2,0,.2h0c0,0,0,.2,0,.2h0c0,0,0,.2,0,.2h0c0,0,0,.2,0,.2h0c0,0,0,.2,0,.2h0c0,0,0,.2,0,.2h0c0,0,0,.1,0,.1l.5-.4h0s0-.1,0-.1h0c0-.1,0-.2,0-.2h0c0-.1,0-.2,0-.2h0c0,0,0-.2,0-.2h0c0,0,0-.2,0-.2h0c0,0,0-.2,0-.2h0c0,0,0-.2,0-.2h0c0,0,0-.2,0-.2h0c0,0,0-.2,0-.2h0c0,0,0-.1,0-.1h0c0,0,0-.1,0-.1h0c0,0,0-.1,0-.1h-.1c0,0,0-.1,0-.1h0c0,0-.1-.1-.1-.1h0l-.3.6h0Z"/>
      </g>
    </g>
    <path class="st0" d="M26.8,27.8c1.3-1.2,2-3,2.2-4.7.1-1.1.1-2.2,0-3.2,0-.8-.1-1.8-.8-2.3-.1-.1-.3,0-.4.1-.2.7.1,1.4.2,2.1.2.9.2,1.9.2,2.8,0,1.9-.5,3.6-1.6,5.2,0,0,0,.1,0,0h0Z"/>
    <path class="st0" d="M26.9,30c2-.9,3.5-3.8,3.8-5.9,0-.2-.2-.2-.3,0-.6.9-.9,2-1.4,2.9-.5,1.1-1.3,2.1-2.1,3,0,0,0,0,0,0h0Z"/>
    <path class="st0" d="M23.9,8.8c0-.2.1-.4.2-.6.2-.4.4-.8.6-1.2,0,0,0,0,0,0-.3.4-.5.8-.7,1.2,0,.2-.2.5-.2.7,0,0,.1,0,.2,0Z"/>
    <path class="st0" d="M24.4,8.6c0-.1,0-.2,0-.3.1-.3.3-.6.4-.9,0,0,0,0,0,0-.2.2-.3.5-.4.8,0,.1-.1.3-.2.5,0,0,.1,0,.2,0h0Z"/>
  </g>
  <polygon class="st0" points="108.6 46.5 108.5 46.4 108.4 46.3 108.3 46.3 108.2 46.2 108.1 46.2 108 46.1 107.8 46.1 107.7 46 107.6 46 107.5 45.9 107.4 45.8 107.3 45.8 107.2 45.7 107.1 45.7 106.9 45.6 106.8 45.5 106.7 45.5 106.6 45.4 106.5 45.3 106.4 45.3 106.2 45.2 106.1 45.2 106 45.1 105.9 45 105.6 45.6 105.7 45.7 105.8 45.7 105.9 45.8 106.1 45.9 106.2 45.9 106.3 46 106.4 46 106.5 46.1 106.6 46.2 106.7 46.2 106.8 46.3 107 46.4 107.1 46.4 107.2 46.5 107.3 46.5 107.4 46.6 107.5 46.7 107.7 46.7 107.8 46.8 107.9 46.8 108 46.9 108.1 47 108.2 47 108.3 47.1 108.5 47.1 108.5 47.2 108.8 46.5 108.8 46.5 108.6 46.5"/>
  <polygon class="st0" points="123.7 50.7 123.6 50.7 123.5 50.7 123.4 50.7 123.3 50.7 123.2 50.7 123.2 50.7 123.1 50.7 123 50.7 122.9 50.7 122.8 50.7 122.8 50.7 122.7 50.7 122.6 50.7 122.5 50.7 122.4 50.7 122.3 50.7 122.2 50.7 122.2 50.6 122.1 50.6 122 50.6 121.9 50.6 121.8 50.6 121.7 50.6 121.6 50.6 121.5 50.6 121.4 50.6 121.4 50.6 121.3 50.5 121.2 50.5 121.1 50.5 121 50.5 120.9 50.5 120.8 50.5 120.7 50.5 120.6 50.5 120.6 50.5 120.5 51.1 120.5 51.1 120.6 51.1 120.7 51.1 120.8 51.2 120.9 51.2 121 51.2 121.1 51.2 121.2 51.2 121.3 51.2 121.4 51.2 121.5 51.2 121.6 51.2 121.6 51.2 121.7 51.3 121.8 51.3 121.9 51.3 122 51.3 122.1 51.3 122.2 51.3 122.3 51.3 122.4 51.3 122.4 51.3 122.5 51.3 122.6 51.3 122.7 51.3 122.8 51.3 122.9 51.3 123 51.4 123.1 51.4 123.2 51.4 123.2 51.4 123.3 51.4 123.4 51.4 123.5 51.4 123.6 51.4 123.7 51.4 123.7 51.4 123.8 51.4 123.8 50.7 123.7 50.7 123.7 50.7"/>
  <polygon class="st0" points="118.5 50.1 118.4 50 118.3 50 118.2 50 118.1 50 118 49.9 117.9 49.9 117.8 49.9 117.7 49.9 117.6 49.8 117.5 49.8 117.4 49.8 117.3 49.8 117.2 49.7 117.1 49.7 117 49.7 116.9 49.7 116.8 49.6 116.7 49.6 116.6 49.6 116.5 49.5 116.4 49.5 116.3 49.5 116.2 49.5 116.1 49.4 116 49.4 115.9 49.3 115.8 49.3 115.7 49.3 115.6 49.3 115.5 49.2 115.3 49.9 115.4 49.9 115.5 49.9 115.6 50 115.7 50 115.8 50 115.9 50 116 50.1 116.1 50.1 116.2 50.1 116.3 50.2 116.4 50.2 116.5 50.2 116.6 50.3 116.7 50.3 116.8 50.3 116.9 50.3 117.1 50.4 117.2 50.4 117.2 50.4 117.4 50.5 117.5 50.5 117.6 50.5 117.7 50.5 117.8 50.6 117.9 50.6 118 50.6 118.1 50.6 118.2 50.7 118.3 50.7 118.4 50.7 118.5 50.7 118.5 50.7 118.7 50.1 118.6 50.1 118.5 50.1"/>
  <polygon class="st0" points="113.5 48.6 113.4 48.5 113.3 48.5 113.2 48.4 113.1 48.4 113 48.4 112.9 48.3 112.8 48.3 112.7 48.2 112.6 48.2 112.4 48.2 112.3 48.1 112.2 48.1 112.1 48 112 48 111.9 47.9 111.8 47.9 111.7 47.8 111.6 47.8 111.4 47.7 111.3 47.7 111.2 47.7 111.1 47.6 111 47.5 110.9 47.5 110.8 47.5 110.7 47.4 110.6 47.4 110.3 48 110.4 48 110.5 48.1 110.6 48.1 110.7 48.2 110.8 48.2 111 48.3 111.1 48.3 111.2 48.3 111.3 48.4 111.4 48.5 111.5 48.5 111.6 48.5 111.8 48.6 111.9 48.6 112 48.7 112.1 48.7 112.2 48.8 112.3 48.8 112.4 48.8 112.5 48.9 112.6 48.9 112.8 49 112.9 49 113 49.1 113.1 49.1 113.2 49.1 113.3 49.2 113.4 49.2 113.4 49.2 113.6 48.6 113.6 48.6 113.5 48.6"/>
  <g>
    <path d="M46,27.5v.4c0,.4-.2.7-.7.7s-.7-.3-.7-.7v-1.5c0-.4.2-.7.7-.7s.7.3.7.7v.3h-.4v-.3c0-.2,0-.3-.2-.3s-.2,0-.2.3v1.5c0,.2,0,.3.2.3s.2,0,.2-.3v-.4h.4Z"/>
    <path d="M46.8,28.6h-.4v-2.8h.4v1.2h.5v-1.2h.4v2.8h-.4v-1.2h-.5v1.2Z"/>
    <path d="M48.6,25.8v2.2c0,.2,0,.3.2.3s.2,0,.2-.3v-2.2h.4v2.1c0,.4-.2.7-.7.7s-.7-.3-.7-.7v-2.1h.4Z"/>
    <path d="M50.3,26.5v2h-.4v-2.8h.6l.5,1.7v-1.7h.4v2.8h-.5l-.5-2Z"/>
    <path d="M52.3,27.5v.3c-.1,0-.1.9-.1.9h-.4v-2.8h.4v1.2l.6-1.2h.4l-.6,1.2.6,1.6h-.5l-.4-1.1Z"/>
  </g>
  <g>
    <path d="M48.7,47.7h.6v.4h-.6v1.2h-.4v-2.8h1.2v.4h-.7v.8Z"/>
    <path d="M49.7,47.1c0-.4.2-.7.7-.7s.7.3.7.7v1.5c0,.4-.2.7-.7.7s-.7-.3-.7-.7v-1.5ZM50.1,48.6c0,.2,0,.3.2.3s.2,0,.2-.3v-1.5c0-.2,0-.3-.2-.3s-.2,0-.2.3v1.5Z"/>
    <path d="M52.3,49.2c0,0,0-.1,0-.3v-.4c0-.3,0-.4-.3-.4h-.2v1.1h-.4v-2.8h.7c.5,0,.7.2.7.6v.2c0,.3,0,.5-.3.6.2,0,.3.3.3.6v.4c0,.1,0,.2,0,.3h-.4ZM51.9,46.8v.9h.2c.2,0,.3,0,.3-.3v-.3c0-.2,0-.3-.2-.3h-.2Z"/>
    <path d="M53.6,47.6h.6v.4h-.6v.8h.8v.4h-1.2v-2.8h1.2v.4h-.8v.8Z"/>
    <path d="M47.7,50.4c.4,0,.6.3.6.7h0c0,0-.4,0-.4,0h0c0-.3,0-.4-.2-.4s-.2,0-.2.3c0,.6.9.7.9,1.5s-.2.7-.7.7-.7-.3-.7-.7v-.2h.4v.2c0,.2,0,.3.2.3s.2,0,.2-.3c0-.6-.9-.7-.9-1.5s.2-.7.6-.7Z"/>
    <path d="M49.2,53.2h-.4v-2.8h.4v1.2h.5v-1.2h.4v2.8h-.4v-1.2h-.5v1.2Z"/>
    <path d="M52,53.2h-.4v-.5h-.6v.5h-.5l.4-2.8h.6l.4,2.8ZM51,52.3h.4l-.2-1.4-.2,1.4Z"/>
    <path d="M52.7,51.2v2h-.4v-2.8h.6l.5,1.7v-1.7h.4v2.8h-.5l-.5-2Z"/>
    <path d="M54.6,52.1v.3c-.1,0-.1.9-.1.9h-.4v-2.8h.4v1.2l.6-1.2h.4l-.6,1.2.6,1.6h-.5l-.4-1.1Z"/>
  </g>
  <g>
    <path d="M95.1,30.5c.4,0,.6.3.6.7h0c0,0-.4,0-.4,0h0c0-.3,0-.4-.2-.4s-.2,0-.2.3c0,.6.9.7.9,1.5s-.2.7-.7.7-.7-.3-.7-.7v-.2h.4v.2c0,.2,0,.3.2.3s.2,0,.2-.3c0-.6-.9-.7-.9-1.5s.2-.7.6-.7Z"/>
    <path d="M96.1,30.6h.4v2.8h-.4v-2.8Z"/>
    <path d="M97.9,33.4c0,0,0-.1,0-.3v-.4c0-.3,0-.4-.3-.4h-.2v1.1h-.4v-2.8h.7c.5,0,.7.2.7.6v.2c0,.3,0,.5-.3.6.2,0,.3.3.3.6v.4c0,.1,0,.2,0,.3h-.4ZM97.4,31v.9h.2c.2,0,.3,0,.3-.3v-.3c0-.2,0-.3-.2-.3h-.2Z"/>
    <path d="M98.7,30.6h.4v2.4h.7v.4h-1.2v-2.8Z"/>
    <path d="M100.1,31.2c0-.4.2-.7.7-.7s.7.3.7.7v1.5c0,.4-.2.7-.7.7s-.7-.3-.7-.7v-1.5ZM100.6,32.7c0,.2,0,.3.2.3s.2,0,.2-.3v-1.5c0-.2,0-.3-.2-.3s-.2,0-.2.3v1.5Z"/>
    <path d="M101.8,30.6h.4v2.8h-.4v-2.8Z"/>
    <path d="M103.1,31.3v2h-.4v-2.8h.6l.5,1.7v-1.7h.4v2.8h-.5l-.5-2Z"/>
  </g>
  <g>
    <path d="M94.3,49.2h.6v.4h-.6v1.2h-.4v-2.8h1.2v.4h-.7v.8Z"/>
    <path d="M95.3,47.9h.4v2.4h.7v.4h-1.2v-2.8Z"/>
    <path d="M98.2,50.7h-.4v-.5h-.6v.5h-.5l.4-2.8h.6l.4,2.8ZM97.2,49.8h.4l-.2-1.4-.2,1.4Z"/>
    <path d="M98.9,48.7v2h-.4v-2.8h.6l.5,1.7v-1.7h.4v2.8h-.5l-.5-2Z"/>
    <path d="M100.9,49.6v.3c-.1,0-.1.9-.1.9h-.4v-2.8h.4v1.2l.6-1.2h.4l-.6,1.2.6,1.6h-.5l-.4-1.1Z"/>
  </g>
  <g>
    <path d="M114,39.2c0,0,0-.1,0-.3v-.4c0-.3,0-.4-.3-.4h-.2v1.1h-.4v-2.8h.7c.5,0,.7.2.7.6v.2c0,.3,0,.5-.3.6.2,0,.3.3.3.6v.4c0,.1,0,.2,0,.3h-.4ZM113.6,36.8v.9h.2c.2,0,.3,0,.3-.3v-.3c0-.2,0-.3-.2-.3h-.2Z"/>
    <path d="M114.8,37.1c0-.4.2-.7.7-.7s.7.3.7.7v1.5c0,.4-.2.7-.7.7s-.7-.3-.7-.7v-1.5ZM115.2,38.6c0,.2,0,.3.2.3s.2,0,.2-.3v-1.5c0-.2,0-.3-.2-.3s-.2,0-.2.3v1.5Z"/>
    <path d="M116.9,36.4v2.2c0,.2,0,.3.2.3s.2,0,.2-.3v-2.2h.4v2.1c0,.4-.2.7-.7.7s-.7-.3-.7-.7v-2.1h.4Z"/>
    <path d="M118.6,37.2v2h-.4v-2.8h.6l.5,1.7v-1.7h.4v2.8h-.5l-.5-2Z"/>
    <path d="M120,36.4h.7c.4,0,.7.2.7.7v1.4c0,.4-.2.7-.7.7h-.7v-2.8ZM120.5,36.8v2h.2c.1,0,.2,0,.2-.3v-1.5c0-.2,0-.3-.2-.3h-.2Z"/>
  </g>
  <g>
    <path d="M81.9,28.5c.4,0,.6.3.6.7h0c0,0-.4,0-.4,0h0c0-.3,0-.4-.2-.4s-.2,0-.2.3c0,.6.9.7.9,1.5s-.2.7-.7.7-.7-.3-.7-.7v-.2h.4v.2c0,.2,0,.3.2.3s.2,0,.2-.3c0-.6-.9-.7-.9-1.5s.2-.7.6-.7Z"/>
    <path d="M83.3,31.4h-.4v-2.8h.4v1.2h.5v-1.2h.4v2.8h-.4v-1.2h-.5v1.2Z"/>
    <path d="M84.6,29.2c0-.4.2-.7.7-.7s.7.3.7.7v1.5c0,.4-.2.7-.7.7s-.7-.3-.7-.7v-1.5ZM85.1,30.7c0,.2,0,.3.2.3s.2,0,.2-.3v-1.5c0-.2,0-.3-.2-.3s-.2,0-.2.3v1.5Z"/>
    <path d="M87.3,31.4c0,0,0-.1,0-.3v-.4c0-.3,0-.4-.3-.4h-.2v1.1h-.4v-2.8h.7c.5,0,.7.2.7.6v.2c0,.3,0,.5-.3.6.2,0,.3.3.3.6v.4c0,.1,0,.2,0,.3h-.4ZM86.8,29v.9h.2c.2,0,.3,0,.3-.3v-.3c0-.2,0-.3-.2-.3h-.2Z"/>
    <path d="M87.9,28.6h1.4v.4h-.5v2.4h-.4v-2.4h-.5v-.4Z"/>
    <path d="M82.5,32.6h.4v2.4h.7v.4h-1.2v-2.8Z"/>
    <path d="M83.9,33.2c0-.4.2-.7.7-.7s.7.3.7.7v1.5c0,.4-.2.7-.7.7s-.7-.3-.7-.7v-1.5ZM84.4,34.7c0,.2,0,.3.2.3s.2,0,.2-.3v-1.5c0-.2,0-.3-.2-.3s-.2,0-.2.3v1.5Z"/>
    <path d="M85.7,32.6h.4v2.8h-.4v-2.8Z"/>
    <path d="M86.9,33.3v2h-.4v-2.8h.6l.5,1.7v-1.7h.4v2.8h-.5l-.5-2Z"/>
  </g>
  <g>
    <path d="M73.8,47.6c.4,0,.6.3.6.7h0c0,0-.4,0-.4,0h0c0-.3,0-.4-.2-.4s-.2,0-.2.3c0,.6.9.7.9,1.5s-.2.7-.7.7-.7-.3-.7-.7v-.2h.4v.2c0,.2,0,.3.2.3s.2,0,.2-.3c0-.6-.9-.7-.9-1.5s.2-.7.6-.7Z"/>
    <path d="M75.2,50.4h-.4v-2.8h.4v1.2h.5v-1.2h.4v2.8h-.4v-1.2h-.5v1.2Z"/>
    <path d="M76.5,48.3c0-.4.2-.7.7-.7s.7.3.7.7v1.5c0,.4-.2.7-.7.7s-.7-.3-.7-.7v-1.5ZM77,49.8c0,.2,0,.3.2.3s.2,0,.2-.3v-1.5c0-.2,0-.3-.2-.3s-.2,0-.2.3v1.5Z"/>
    <path d="M79.2,50.4c0,0,0-.1,0-.3v-.4c0-.3,0-.4-.3-.4h-.2v1.1h-.4v-2.8h.7c.5,0,.7.2.7.6v.2c0,.3,0,.5-.3.6.2,0,.3.3.3.6v.4c0,.1,0,.2,0,.3h-.4ZM78.7,48.1v.9h.2c.2,0,.3,0,.3-.3v-.3c0-.2,0-.3-.2-.3h-.2Z"/>
    <path d="M79.8,47.7h1.4v.4h-.5v2.4h-.4v-2.4h-.5v-.4Z"/>
    <path d="M74.8,52.3v.4c0,.4-.2.7-.7.7h-.2v1.1h-.4v-2.8h.6c.4,0,.7.2.7.7ZM73.9,52.1v.9h.2c.1,0,.2,0,.2-.3v-.4c0-.2,0-.3-.2-.3h-.2Z"/>
    <path d="M75.1,51.7h.4v2.4h.7v.4h-1.2v-2.8Z"/>
    <path d="M78,54.4h-.4v-.5h-.6v.5h-.5l.4-2.8h.6l.4,2.8ZM77,53.6h.4l-.2-1.4-.2,1.4Z"/>
    <path d="M78,51.7h1.4v.4h-.5v2.4h-.4v-2.4h-.5v-.4Z"/>
    <path d="M80.1,52.8h.6v.4h-.6v.8h.8v.4h-1.2v-2.8h1.2v.4h-.8v.8Z"/>
  </g>
  <g>
    <path d="M69.8,33.4c0,0,0-.1,0-.3v-.4c0-.3,0-.4-.3-.4h-.2v1.1h-.4v-2.8h.7c.5,0,.7.2.7.6v.2c0,.3,0,.5-.3.6.2,0,.3.3.3.6v.4c0,.1,0,.2,0,.3h-.4ZM69.3,31v.9h.2c.2,0,.3,0,.3-.3v-.3c0-.2,0-.3-.2-.3h-.2Z"/>
    <path d="M70.6,30.6h.4v2.8h-.4v-2.8Z"/>
    <path d="M72.8,31.2h0c0,.4,0,.6-.3.7.2,0,.3.3.3.6v.2c0,.4-.2.7-.7.7h-.7v-2.8h.7c.5,0,.7.2.7.6ZM71.9,31v.7h.2c.2,0,.3,0,.3-.3v-.2c0-.2,0-.3-.2-.3h-.2ZM71.9,32.1v.9h.3c.1,0,.2,0,.2-.3v-.2c0-.3,0-.3-.3-.3h-.2Z"/>
  </g>
  <g>
    <path d="M113.8,54.7h-.4v-2.8h.4v1.2h.5v-1.2h.4v2.8h-.4v-1.2h-.5v1.2Z"/>
    <path d="M115.2,51.9h.4v2.8h-.4v-2.8Z"/>
    <path d="M116.4,52.6v2h-.4v-2.8h.6l.5,1.7v-1.7h.4v2.8h-.5l-.5-2Z"/>
    <path d="M117.9,51.9h.7c.4,0,.7.2.7.7v1.4c0,.4-.2.7-.7.7h-.7v-2.8ZM118.3,52.3v2h.2c.1,0,.2,0,.2-.3v-1.5c0-.2,0-.3-.2-.3h-.2Z"/>
    <path d="M112.7,55.8c.4,0,.6.3.6.7h0c0,0-.4,0-.4,0h0c0-.3,0-.4-.2-.4s-.2,0-.2.3c0,.6.9.7.9,1.5s-.2.7-.7.7-.7-.3-.7-.7v-.2h.4v.2c0,.2,0,.3.2.3s.2,0,.2-.3c0-.6-.9-.7-.9-1.5s.2-.7.6-.7Z"/>
    <path d="M114.2,58.7h-.4v-2.8h.4v1.2h.5v-1.2h.4v2.8h-.4v-1.2h-.5v1.2Z"/>
    <path d="M117,58.7h-.4v-.5h-.6v.5h-.5l.4-2.8h.6l.4,2.8ZM116,57.8h.4l-.2-1.4-.2,1.4Z"/>
    <path d="M117.7,56.6v2h-.4v-2.8h.6l.5,1.7v-1.7h.4v2.8h-.5l-.5-2Z"/>
    <path d="M119.7,57.5v.3c-.1,0-.1.9-.1.9h-.4v-2.8h.4v1.2l.6-1.2h.4l-.6,1.2.6,1.6h-.5l-.4-1.1Z"/>
  </g>
</svg>