<?xml version="1.0" encoding="UTF-8"?>
<svg id="Layer_2" xmlns="http://www.w3.org/2000/svg" version="1.1" viewBox="0 0 274.2 72.8">
  <!-- Generator: Adobe Illustrator 30.0.0, SVG Export Plug-In . SVG Version: 2.1.1 Build 123)  -->
  <defs>
    <style>
      .st0 {
        fill: none;
        stroke: #fff;
        stroke-miterlimit: 10;
      }

      .st1 {
        fill: #fff;
      }

      .st2 {
        fill: #ed3024;
      }

      .st3 {
        fill: #ee3124;
      }
    </style>
  </defs>
  <g id="Layer_2-2">
    <g>
      <g>
        <g>
          <path class="st1" d="M58.8,34.7c-1.5-.4-2-1-2-2.1,0-.6,0-1.3.2-4.5h.2c.5,4.5,3,6.8,5.7,6.8s4.4-1.8,4.5-4.5c0-2.5-1.6-3.7-4.3-4.4-3.1-.8-6-2.2-5.9-6.1,0-3.5,2.6-5.7,6.9-5.7s2.3.1,3.2.4c1.4.3,1.7,1,1.9,2,0,.5,0,1.3,0,3.9h-.2c-.4-3-2-6-5-6s-4,2-4,4.1,1.7,3.8,4.1,4.5c4.1,1.1,6.1,2.6,6,6,0,3.8-3,6.1-7.3,6.1s-2.9-.2-3.9-.5h0Z"/>
          <path class="st1" d="M71.8,34.7c2.9-.1,3.3-1.1,3.3-4.3v-11.5c0-3.4-.8-3.9-3.3-4.1v-.2c2,0,4.6.1,7.5,0,2.7,0,4.5,0,7.3-.1.4.6.4,1.7.3,2.8v2.4h-.3c-.9-4-2.4-4.7-7.7-4.8h-.7c0,.4,0,1.9,0,2.7v6.5h1.1c5.2,0,5.5-.7,5.9-2.7h.2v6.3h-.2c-.3-2.5-.7-3.1-5.9-3.2h-1.1v6.3c0,3,.5,3.6,3.6,3.6s5.5-1.9,6.4-5.3h.2c0,.7-.2,2.6-.2,3.2-.1,1.5-.4,2.1-1,2.5-2.8,0-4.2,0-6.9,0s-5,0-8.5,0v-.2h0s0,0,0,0Z"/>
          <path class="st1" d="M89,34.7c1.9-.2,2.7-.9,3.8-3.3,1.8-3.9,5.7-12.5,7.5-17h.1c1.5,4,4.4,11.2,6.6,16.2,1.3,3,1.8,3.8,3.7,4.1v.2c-1.4,0-2.9,0-4.6,0s-3.5,0-4.8,0v-.2c2.4-.2,3.4-.8,2.7-3.1-.5-1.5-1.3-3.6-1.8-4.9h-6.9c-.1.3-.9,2-1.6,4.2-1,3,0,3.7,2.6,3.8v.2c-1.1,0-1.8,0-3.5,0s-2.8,0-3.8,0v-.2h0ZM102,26.3c-.7-1.9-2.4-5.9-3.2-7.9l-3.4,7.9h6.5Z"/>
          <path class="st1" d="M111.2,34.7c2.9-.1,3.3-1.1,3.3-4.2v-11.6c0-3-.4-3.9-3.3-4.1v-.2h8c4.5,0,8.2,1.3,8,5.5,0,2-1.6,3.9-4.1,4.7.8,1.5,1.7,3.1,2.9,4.9,2.6,3.7,4.4,4.9,6.3,5v.2c-.8.1-1.6.2-2.4.2-2.4,0-3.9-.7-5.1-1.9-.8-.8-1.7-2.2-2.6-3.6-.8-1.5-1.4-2.6-2.1-3.9-.8,0-1.8,0-2.6-.1v4.9c0,3.1.5,4.2,3.2,4.3v.2c-2,0-3.1,0-5.1,0s-2.7,0-4.6,0v-.2h0ZM122.3,24.2c1.1-.8,1.6-2.1,1.6-3.9,0-3.1-1.6-5.4-6.2-5.4,0,1.1,0,2,0,3.3v7c2.1,0,3.6-.3,4.7-1.1h0Z"/>
          <path class="st1" d="M132.3,29c0-3.7,3.1-5.8,6.3-6-2.6-.6-3.9-2-3.9-4.2,0-2.8,2.6-4.5,6.2-4.5s4.3.9,4.3,2.5-.6,1.4-1.6,1.5c-.3-1.9-1.1-3.8-2.9-3.8s-3,1.7-3,4c0,2.8,1.7,4.2,4.4,4.3v.4c-3.4,0-6.4,1.8-6.5,5.7,0,3.7,1.9,6,5.4,6s6.2-3,6.2-6.2c0-2-.5-4-2.4-4s-1.9,1.1-1.9,2.3.3,1.8.9,2.3c-.3.2-.6.3-1,.3-1.1,0-1.9-.6-1.9-1.9,0-1.8,1.8-2.6,3.3-3.6,2-1.3,3-2.4,3-3.9,0-.7-.4-1.3-1-1.5.3-.4.9-.6,1.3-.6,1.1,0,2,.7,2,1.9s-.8,1.9-1.9,2.6c-.7.6-2.5,1.3-3.6,2,.5-.1.9-.2,1.3-.2,2.9,0,4.4,1.9,4.4,4.3,0,4.1-4.2,6.5-8.8,6.5s-8.8-2-8.8-6.3h0Z"/>
        </g>
        <g>
          <path class="st1" d="M58.8,59.4c-1.5-.4-2-1-2-2.1,0-.6,0-1.3.2-4.5h.2c.5,4.5,3,6.8,5.7,6.8s4.4-1.8,4.5-4.5c0-2.5-1.6-3.7-4.3-4.4-3.1-.8-6-2.2-5.9-6.1,0-3.5,2.6-5.7,6.9-5.7s2.3.2,3.2.4c1.4.3,1.7,1,1.9,2,0,.5,0,1.3,0,3.9h-.2c-.4-3-2-6-5-6s-4,2-4,4.1,1.7,3.8,4.1,4.5c4.1,1.1,6.1,2.7,6,6,0,3.8-3,6.1-7.3,6.1s-2.9-.2-3.9-.5h0Z"/>
          <path class="st1" d="M72.9,59.4c2.9-.1,3.3-1.1,3.3-4.3v-11.5c0-3.4-.8-3.9-3.3-4.1v-.2c2,0,4.6.1,7.5,0,2.7,0,4.5,0,7.3-.2.4.6.4,1.7.3,2.8v2.4h-.3c-.9-4-2.4-4.7-7.7-4.8h-.7c0,.4,0,1.9,0,2.7v6.5h1.1c5.2,0,5.5-.7,5.9-2.7h.2v6.3h-.2c-.3-2.5-.7-3.2-5.9-3.2h-1.1v6.3c0,3,.5,3.6,3.6,3.6s5.5-1.9,6.4-5.3h.2c0,.7-.2,2.6-.2,3.2-.1,1.5-.4,2.1-1,2.5-2.8,0-4.2,0-6.9,0s-5,0-8.5,0v-.2h0Z"/>
          <path class="st1" d="M91.8,59.4c2.9-.1,3.3-1.1,3.3-4.2v-11.6c0-3-.4-3.9-3.3-4v-.2h8c4.5,0,8.2,1.3,8,5.5,0,2-1.6,3.9-4.1,4.7.8,1.5,1.7,3.1,2.9,4.9,2.6,3.7,4.4,4.9,6.3,5v.2c-.8.1-1.6.2-2.4.2-2.4,0-3.9-.7-5.1-1.9-.8-.8-1.7-2.2-2.6-3.6-.8-1.5-1.4-2.6-2.1-3.9-.8,0-1.8,0-2.6-.2v4.9c0,3.1.5,4.2,3.2,4.3v.2c-2,0-3.1,0-5,0s-2.7,0-4.6,0v-.2h0ZM103,48.8c1.1-.8,1.6-2.1,1.6-3.9,0-3.2-1.6-5.4-6.2-5.4,0,1.1,0,2,0,3.3v7c2.1,0,3.6-.3,4.7-1.1Z"/>
          <path class="st1" d="M114.3,43.7c-1.4-3.2-2-4.1-4.5-4.2v-.2c1.7,0,3.3,0,4.9,0s3.2,0,5.1,0v.2c-2.5,0-3.5.9-2.6,3.2,1.6,4.3,3.9,9.9,5.2,12.8,1.1-2.5,2.9-7,4.8-12,1.1-3,.3-3.9-2.6-4v-.2c1.3,0,1.6,0,3.2,0s2.6,0,4,0v.2c-1.9.2-2.7,1-3.8,3.5-2.3,5.4-5.6,13.1-7,16.9h-.2c-1.7-4.3-5-12.1-6.8-16.1h0Z"/>
          <path class="st1" d="M133.2,59.4c2.9-.1,3.4-1.1,3.4-4.3v-11.5c0-3.4-.8-3.9-3.4-4.1v-.2c2,0,4.6.1,7.5,0,2.7,0,4.5,0,7.4-.2.4.6.4,1.7.3,2.8v2.4h-.3c-.9-4-2.4-4.7-7.7-4.8h-.7c0,.4,0,1.9,0,2.7v6.5h1.1c5.2,0,5.5-.7,5.9-2.7h.2v6.3h-.2c-.3-2.5-.7-3.2-5.9-3.2h-1.1v6.3c0,3,.5,3.6,3.6,3.6s5.5-1.9,6.4-5.3h.2c0,.7-.2,2.6-.2,3.2-.1,1.5-.4,2.1-1,2.5-2.8,0-4.2,0-6.9,0s-5,0-8.5,0v-.2h0Z"/>
        </g>
        <g>
          <path class="st3" d="M6.7,0S0,4.9,0,14.7s5.3,13,7.2,14.5c1.8,1.5,18.9,8.7,21,9.5,2,.8,5.2,2.4,8.1,4.7,3.2,2.5,3.4,3.4,3.7,4.2s.5,2,.5,2c0,0,2.8-3.9,2.8-9.5s-1.9-8.2-3.9-10.7-7.1-5.7-11.8-7.9c-4.7-2.2-15-7-17.1-8.2s-5.9-4.5-6.2-6.9C3.7,3,6.7,0,6.7,0h0Z"/>
          <path class="st3" d="M6.7,22.4S0,27.3,0,37.1s5.3,13,7.2,14.5,18.9,8.7,21,9.5c2,.8,5.2,2.4,8.1,4.7,3.2,2.5,3.4,3.4,3.7,4.2s.5,2,.5,2c0,0,2.8-3.9,2.8-9.5s-1.9-8.2-3.9-10.7c-2-2.6-7.1-5.7-11.8-7.9-4.7-2.2-15-7-17.1-8.2s-5.9-4.5-6.2-6.9c-.4-3.4,2.6-6.4,2.6-6.4h0Z"/>
          <path class="st3" d="M36.6,10.9h0c-.2.9-.7,1.6-1.4,2.2-.7.6-1.6.9-2.5.9-2.2,0-4-1.8-4-4.1s.3-1.8.9-2.5h0c.2-.3.5-.6.8-.8.1,0,.2-.2.3-.2,1-1,2.4-2.6,2.4-3.7C33,.9,31.8,0,31.8,0c0,0,1.2.7,2.4,1.9,1.2,1.2,2.6,3.4,2.8,5.1.2,1.7-.4,3.7-.4,3.8h0Z"/>
        </g>
      </g>
      <g>
        <path class="st1" d="M274.2,36.8c0,19.9-16.1,36-36,36s-36-16.1-36-36S218.4.8,238.2.8s36,16.1,36,36"/>
        <path class="st2" d="M238.7,34.9h18.1c0-.1,0-.2,0-.3h-18.5c.1,0,.2.2.4.3M237.4,33.5h2.2c0-.1,0-.2-.1-.3h-2.2c0,.1,0,.2.1.3M228.4,36.3h7c-.1-.1-.2-.2-.3-.3h-6.7c0,.1,0,.2,0,.3M242.5,32.2h13.9c0-.1,0-.2,0-.3h-13.9c0,.1,0,.2.1.3M242.9,33.5h13.8c0-.1,0-.2,0-.3h-13.8v.3q0,0,0,0ZM237.6,32.2h1.1c-.2-.1-.4-.2-.6-.2s-.4,0-.6.2M228.8,33.5h5.2c0-.1,0-.2,0-.3h-5.1c0,.1,0,.2-.1.3M228.5,34.9h5.9c0-.1-.1-.2-.1-.3h-5.7c0,.1,0,.2,0,.3M229.3,32.2h4.7c0-.1,0-.2,0-.3h-4.6c0,.1-.1.2-.1.3M247,25.3h5.9c0-.1-.2-.2-.3-.3h-6.1c.2.1.3.2.5.3M247.9,20.8h-19.3c-.2.1-.3.2-.5.3h20.3c-.2-.1-.3-.2-.5-.3M241.8,30.8h14.1c0-.1,0-.2-.1-.3h-14.2c0,.1.2.2.2.3M245.1,19.4h-13.7c-.3.1-.5.2-.8.3h15.3c-.2-.1-.5-.2-.8-.3M244.7,23.9h7c-.1-.1-.2-.2-.3-.3h-7.4c.3.1.5.2.8.3M247.3,29.4h8.1c0-.1-.1-.2-.1-.3h-7.7l-.3.3ZM248.6,28h6.2c0-.1-.1-.2-.2-.3h-5.7l-.3.3ZM248.7,26.6h5.3c0-.1-.1-.2-.2-.3h-5.4c.1.1.2.2.4.3M238.2,18.1c-1,0-2.1,0-3.1.3h6.1c-1-.2-2-.3-3.1-.3M245.7,44.2h-5c-.2.1-.5.2-.8.3h5.4c.1-.1.2-.2.4-.3M236.8,44.6c-.3,0-.6-.2-.8-.3h-4.8c.1.1.2.2.3.3h5.2,0ZM234.7,43.2c0,0-.2-.2-.2-.3h-4.3c0,.1.1.2.2.3h4.4,0ZM230,30.8h4.5c0-.1.1-.2.2-.3h-4.5c0,.1-.1.2-.2.3M233.6,40.4s0,0,0-.1v-.2h-4.7c0,.1,0,.2.1.3h4.6,0ZM240.4,36.3h16.5v-.3h-16.9c.1.1.3.2.4.3M240.8,47h-5c.8.2,1.6.3,2.4.3s1.8-.1,2.6-.3M243.9,45.6h-11.1c.2.1.3.2.5.3h10.1c.2,0,.4-.2.5-.3M233.9,41.8c0,0,0-.2-.1-.3h-4.4c0,.1.1.2.1.3h4.4ZM232.6,28h11.3c-.2-.1-.4-.2-.5-.3h-10.3c-.2.1-.3.2-.5.3M238,26.3c-.8,0-1.6.1-2.4.3h5.3c-.8-.2-1.6-.3-2.5-.3h-.3ZM245.7,29.4c-.1-.1-.2-.2-.4-.3h-5.7c.3,0,.5.2.8.3h5.3ZM239.1,41.5h-1.4c.3.2.6.2.8.2.3,0,.5,0,.7-.2M231.1,29.4h4.9c.2-.1.5-.2.8-.3h-5.4c-.1.1-.2.2-.3.3M239.5,40.1h-2.7c0,.1,0,.2.1.3h2.6c0-.1,0-.2,0-.3M238.7,39.1c-.1,0-.2-.2-.4-.3h-9.8c0,.1,0,.2,0,.3h10.1ZM237,37.7c-.1-.1-.3-.2-.4-.3h-8.2c0,.1,0,.2,0,.3h8.6ZM243.6,50.1h7.8c.1-.1.2-.2.3-.3h-7.4c-.2.1-.5.2-.8.3M246.2,48.7h6.5c0-.1.2-.2.3-.3h-6.3c-.1.1-.3.2-.5.3M228.6,52.8h19.3c.2,0,.3-.2.5-.3h-20.3l.5.3M231.4,54.2h13.7c.3,0,.5-.2.8-.3h-15.3c.3.1.5.2.8.3M226.6,51.5h23.3c.1-.1.3-.2.4-.3h-24.1c.1.1.3.2.4.3M227.1,45.6h-5.3c0,.1.1.2.2.3h5.4c0-.1-.2-.2-.2-.3M232.1,49.8h-7.4c.1.1.2.2.3.3h7.8c-.2,0-.5-.2-.8-.3M228.2,47h-5.7c0,.1.1.2.2.3h5.8c-.1-.1-.2-.2-.3-.3M229.8,48.4h-6.3c0,.1.2.2.2.3h6.5c-.1,0-.3-.2-.4-.3M238.2,55.5c1.1,0,2.1,0,3.1-.2h-6.1c1,.2,2,.2,3.1.2M242.8,40.4h13.8c0-.1,0-.2,0-.3h-13.9c0,.1,0,.2,0,.3M242.6,39.1h14.2c0-.1,0-.2,0-.3h-14.4c0,.1,0,.2.1.3M241.8,37.6s0,0,0,0h15.1v-.3h-15.4c0,0,.2.2.2.3M242.7,41.8h13.6v-.3c0,0-13.5,0-13.5,0,0,.1,0,.2,0,.3M249.9,22.2h-23.3c-.1.1-.3.2-.4.3h24.1c-.1-.1-.3-.2-.4-.3M248,47.3h5.7c0-.1.1-.2.2-.3h-5.6c-.1.1-.2.2-.4.3M242,43.2h13.9c0-.1,0-.2.1-.3h-13.7c0,.1-.1.2-.2.3M248.1,44.6h7.2c0-.1.1-.2.1-.3h-7.6l.3.3h0ZM249.4,45.9h0s5.2,0,5.2,0c0-.1.1-.2.2-.3h-5.6l.3.3h0ZM225.7,30.5h-5c0,.1,0,.2-.1.3h5c0-.1.1-.2.1-.3M227.4,27.7h-5.5c0,.1-.1.2-.2.3h5.4c0-.1.2-.2.2-.3M226.4,29.1h-5.2c0,.1-.1.2-.1.3h5.1c0-.1.1-.2.2-.3M225.1,31.8h-4.9c0,.1,0,.2,0,.3h4.9c0-.1,0-.2.1-.3M226.2,44.2h-5.1c0,.1.1.2.1.3h5.1c0-.1-.1-.2-.2-.3M224.7,33.2h-4.8c0,.1,0,.2,0,.3h4.8c0-.1,0-.2,0-.3M228.7,26.3h-5.9c0,.1-.1.2-.2.3h5.8c.1-.1.2-.2.3-.3M230.4,25h-6.6c0,.1-.2.2-.2.3h6.4c.1-.1.3-.2.4-.3M232.9,23.6h-7.9c-.1.1-.2.2-.3.3h7.5c.2-.1.5-.2.7-.3M224.6,40.1h-4.8c0,.1,0,.2,0,.3h4.8c0-.1,0-.2,0-.3M224.4,34.6h-4.7c0,.1,0,.2,0,.3h4.7c0-.1,0-.2,0-.3M225.5,42.9h-4.9c0,.1,0,.2.1.3h5c0-.1-.1-.2-.1-.3M225,41.5h-4.8v.3h4.9c0-.1,0-.2-.1-.3M224.3,36h-4.7v.3h4.7c0-.1,0-.2,0-.3M224.4,38.7h-4.7c0,.1,0,.2,0,.3h4.7c0-.1,0-.2,0-.3M224.3,37.3h-4.7v.3h4.7c0-.1,0-.2,0-.3M224.7,36.9h0c0-7.6,5.6-13.8,13.5-13.8s7.7,1.7,10.4,4.2l-2.1,2.2c-2.2-2.1-4.8-3.6-8.4-3.6-5.9,0-10.3,4.8-10.3,10.9h0c0,6.2,4.4,11.1,10.3,11.1s6-1.4,8.6-3.8l2,1.9c-2.8,2.8-5.8,4.7-10.6,4.7-7.7,0-13.4-6-13.4-13.7M242.2,33c-.6-2.4-2-3.6-4-3.6s-3.8,1.5-3.8,3.6.3,1.7.8,2.4c.5.7.6.8,2.6,2.4,1.7,1.3,2.1,1.9,2.1,2.8s-.7,1.7-1.6,1.7-1.9-.9-2.2-2.6l-2.1.6c.4,2.8,1.9,4.1,4.4,4.1s3.9-1.5,3.9-3.7-.3-1.9-.9-2.7c-.5-.6-.9-1-2.1-2-1-.8-1.7-1.3-1.9-1.6-.4-.4-.6-1-.6-1.5,0-.8.6-1.5,1.4-1.5s1.6.7,1.9,2.2l2.1-.6h0ZM238.2,1.5c-19.5,0-35.3,15.8-35.3,35.3s15.8,35.3,35.3,35.3,35.3-15.8,35.3-35.3S257.7,1.5,238.2,1.5M265.8,31.6h.9c.7,0,1,.4,1,1.1v1.9c0,.8-.4,1.1-1.1,1.1h-.8v-4.1h0ZM264,31.6h.6v4.1h-.6s0-4.1,0-4.1ZM263.7,19l-1,.8-2.1-2.5-1.8,1.4,1.8,2.2-1,.8-1.8-2.2-.8.6,2.2,2.6-1,.8-3.1-3.8,5.5-4.5,3,3.7h0ZM262.8,31.6l-.8,4.1h-.5l-.8-4.1h.6l.5,2.9h0l.5-2.9h.6ZM258.2,36.8c0,11-8.9,20-19.9,20s-19.9-8.9-19.9-20,8.9-20,19.9-20,19.9,8.9,19.9,20M251.6,8.6h.1c0,0,1.4,4.8,1.4,4.8.1.5.2,1.3.2,1.3,0,0,.3-.7.6-1.2l1.5-2.6,1.2.7-3.7,6.2h-.1c0,0-1.4-4.8-1.4-4.8-.1-.5-.2-1.3-.2-1.3,0,0-.3.7-.6,1.2l-1.5,2.6-1.2-.7,3.7-6.2h0ZM245.2,6.6l1.4.4-1.8,6.9-1.4-.4s1.8-6.9,1.8-6.9ZM238.1,10l-.4-.2c-1.1-.4-1.8-1-1.8-2.2s.8-1.9,2.1-1.9,1.6.3,2.1,1.2l-1.1.7c-.2-.4-.5-.6-.9-.6s-.7.3-.7.6.3.6.9.9l.4.2c1.3.5,2,1.1,2,2.3,0,1.3-1,2.1-2.4,2.1s-2.2-.6-2.7-1.5l1.2-.7c.3.5.7.9,1.4.9s1-.3,1-.7-.4-.7-1.1-1M231.1,6.6l1.8,6.9-1.4.4-1.8-6.9s1.4-.4,1.4-.4ZM221.1,10.9l2.3,3.9c.5.9,1.1,1,2,.5.8-.5,1-1.1.5-2l-2.3-3.8,1.3-.8,2.4,3.9c.9,1.6.3,2.9-1.1,3.8-1.4.9-2.9.7-3.9-.8l-2.4-3.9,1.3-.8h0ZM214.3,16.9c.8-1,1.8-1.4,2.9-1.3v1.4c-.7,0-1.4.1-1.9.8-.8,1-.6,2.3.5,3.1,1,.8,2.4.8,3.2-.2.6-.7.6-1.4.3-2.1l1.3-.4c.4,1.1.2,2.2-.6,3.3-1.3,1.6-3.5,1.9-5.2.6-1.6-1.3-1.8-3.6-.5-5.2M215.2,32.2c-.3,0-.4.3-.4.5s0,.4.3.5l.4.2c.5.2.6.5.6,1.1s-.2,1.2-1,1.2-1-.4-1-1v-.2h.6v.2c0,.2.1.4.4.4s.4-.2.4-.6,0-.5-.3-.6l-.4-.2c-.5-.2-.6-.5-.6-1s.3-1.1,1-1.1,1,.5,1,.9v.3h-.6c0-.4-.1-.6-.4-.6M211.3,31.7h.6v3.1c0,.3.2.4.4.4s.4-.1.4-.4v-3.1h.6v3.2c0,.5-.4,1-.9,1s-.9-.4-.9-1v-3.2h0ZM207.5,32.9h-.6c0-.4-.1-.6-.4-.6s-.4.3-.4.5,0,.4.3.5l.4.2c.5.2.6.5.6,1.1s-.2,1.2-1,1.2-1-.4-1-1v-.2h.6v.2c0,.2.1.4.4.4s.4-.2.4-.6,0-.5-.3-.6l-.4-.2c-.5-.2-.6-.5-.6-1s.3-1.1,1-1.1,1,.5,1,.9v.3h0ZM208.3,32.6c0-.7.5-1,1-1s1,.3,1,1v2.2c0,.7-.5,1-1,1s-1-.3-1-1v-2.2ZM208.4,37h4.8v.5h-4.8v-.5ZM212.4,50.4c-1.2.5-2.3-.2-2.8-1.5-.5-1.3-.3-2.3.4-3.1l1.1.8c-.4.5-.5,1-.3,1.7.2.6.7.8,1.1.6.5-.2.5-.6.5-1.4v-.4c0-1.2.3-2,1.4-2.5,1-.4,2.1,0,2.6,1.2.4.9.3,1.6-.3,2.4l-1.1-.8c.3-.4.4-.7.2-1.1-.2-.4-.5-.5-.9-.4-.4.2-.5.5-.5,1.2v.4c0,1.4-.2,2.2-1.4,2.7M214.6,57.1c-1.3-1.6-1.2-3.8.4-5.2s3.9-1.1,5.2.4,1.2,3.8-.4,5.2-3.9,1.1-5.2-.4M224.5,63.3l-.7,1.1-4-2.5,3.9-6,1.2.8-3.2,4.9s2.7,1.8,2.7,1.8ZM233.2,64.9c-.5,1.7-1.9,2.2-3.5,1.8-1.6-.4-2.6-1.6-2.1-3.4l1.2-4.4,1.4.4-1.2,4.3c-.3,1,0,1.5,1,1.8.9.3,1.5,0,1.8-1l1.2-4.3,1.4.4-1.2,4.4h0ZM240.4,67.8h-1.5c0,0-.3-5.8-.3-5.8h-2c0,0,0-1.2,0-1.2l5.6-.3v1.3c0,0-2,0-2,0l.3,5.9h0ZM246.2,66.8l-2-6.9,1.4-.4,2,6.9-1.4.4h0ZM254.5,63.4c-1.8,1.1-4,.6-5.1-1.2-1.1-1.8-.5-4,1.3-5.1,1.8-1.1,4-.6,5.1,1.2s.5,4-1.3,5.1M264,54.4l-4.9.6c-.5,0-1.3,0-1.3,0,0,0,.7.4,1.1.8l2.3,1.9-.9,1.1-5.6-4.6h0c0-.1,4.9-.7,4.9-.7.5,0,1.3,0,1.3,0,0,0-.7-.4-1.1-.8l-2.3-1.9.9-1.1,5.6,4.6h0c0,.1,0,.1,0,.1ZM267,48.9c-.5,1.3-1.5,1.8-2.4,1.9l-.2-1.4c.6,0,1.1-.3,1.4-1,.2-.6.1-1-.3-1.2-.5-.2-.8,0-1.3.6l-.3.3c-.8.8-1.6,1.2-2.7.8-1-.4-1.5-1.5-.9-2.8.4-.9.9-1.3,1.9-1.5l.2,1.3c-.5,0-.8.2-1,.6-.2.4,0,.8.3.9.4.2.7,0,1.2-.5l.3-.3c1-.9,1.8-1.4,2.9-.9,1.2.5,1.5,1.8.9,3M268.2,37.5h-4.8v-.5h4.8v.5ZM270.3,33.4v.5h-1v1.2h1.2v.6h-1.8v-4.1h1.8v.6h-1.2v1.2h1ZM215.9,53c-1,.9-1.2,2.2-.4,3.2.9,1,2.2,1,3.2.1,1-.9,1.2-2.2.4-3.2-.8-1-2.2-1-3.2-.1M251.4,58.3c-1.1.7-1.4,2-.6,3.2.7,1.1,2,1.6,3.1.9,1.1-.7,1.3-2,.6-3.2-.7-1.1-2-1.6-3.1-.9M267.1,34.7v-2c0-.3-.1-.5-.5-.5h-.3v3h.3c.3,0,.5-.2.5-.5M209.3,35.2c.2,0,.4-.1.4-.4v-2.2c0-.3-.2-.4-.4-.4s-.4.1-.4.4v2.2c0,.3.2.4.4.4"/>
        <path class="st1" d="M265,65c1.6,0,2.9,1.3,2.9,2.9s-1.3,2.9-2.9,2.9-2.9-1.3-2.9-2.9,1.3-2.9,2.9-2.9M265,70.4c1.3,0,2.4-1.1,2.4-2.5s-1.1-2.5-2.4-2.5-2.4,1.1-2.4,2.5,1.1,2.5,2.4,2.5M263.9,66.2h1.3c.8,0,1.2.3,1.2,1s-.4.9-.9.9l1,1.5h-.6l-.9-1.5h-.6v1.5h-.5v-3.4h0ZM264.4,67.7h.5c.5,0,.9,0,.9-.6s-.4-.5-.8-.5h-.7v1.1h0Z"/>
      </g>
      <line class="st0" x1="176" x2="176" y2="72"/>
    </g>
  </g>
</svg>