<?xml version="1.0" encoding="UTF-8"?>
<svg id="Layer_2" data-name="Layer 2" xmlns="http://www.w3.org/2000/svg" viewBox="0 0 329.75 72">
  <defs>
    <style>
      .cls-1 {
        fill: #fff;
      }

      .cls-2 {
        fill: #ed3326;
      }
    </style>
  </defs>
  <g id="TXT">
    <g>
      <g>
        <path class="cls-1" d="M64.77,47.38c-2.2-.59-2.83-1.44-2.96-3-.04-.89-.08-1.82.25-6.56h.3c.72,6.6,4.31,9.9,8.29,9.9s6.43-2.58,6.47-6.56c.04-3.55-2.37-5.37-6.3-6.39-4.48-1.18-8.63-3.13-8.58-8.88.04-5.12,3.8-8.2,10.06-8.2,1.73,0,3.3.21,4.65.55,2.03.47,2.49,1.4,2.71,2.92.08.76.08,1.82-.04,5.71h-.3c-.63-4.36-2.92-8.75-7.19-8.75s-5.84,2.88-5.84,6c0,4.02,2.45,5.54,5.96,6.47,5.88,1.56,8.8,3.85,8.75,8.75,0,5.5-4.31,8.79-10.53,8.79-1.99,0-4.14-.34-5.71-.76Z"/>
        <path class="cls-1" d="M82.9,47.34c4.14-.17,4.86-1.56,4.86-6.22v-16.7c0-4.95-1.1-5.67-4.86-5.92v-.3c2.92.08,6.6.17,10.83.13,3.93-.04,6.56-.08,10.66-.21.64.8.55,2.41.47,4.02l-.17,3.51h-.25c-1.31-5.75-3.51-6.77-11.12-6.89h-.97c-.04.55-.13,2.71-.13,3.93v9.43s1.56,0,1.56,0c7.57-.04,7.91-.97,8.58-3.97h.25v9.09h-.3c-.47-3.59-.97-4.57-8.54-4.61h-1.56s0,9.13,0,9.13c0,4.31.76,5.24,5.2,5.24,5.29,0,7.91-2.71,9.26-7.74h.25c-.04,1.01-.25,3.76-.3,4.69-.21,2.11-.64,3.09-1.44,3.68-4.1-.08-6.05-.13-10.02-.13-4.82,0-7.27-.04-12.26.13v-.3Z"/>
        <path class="cls-1" d="M107.25,47.29c2.71-.21,3.85-1.27,5.45-4.78,2.66-5.71,8.29-18.14,10.91-24.65l.21-.08c2.12,5.88,6.43,16.32,9.51,23.64,1.82,4.27,2.54,5.58,5.41,5.92v.3c-2.07-.08-4.23-.13-6.6-.13-2.79,0-5.03.04-6.98.13v-.3c3.43-.25,4.91-1.18,3.85-4.48-.72-2.2-1.95-5.24-2.66-7.15h-9.94c-.21.47-1.27,2.96-2.32,6.09-1.44,4.27.04,5.41,3.72,5.54v.3c-1.52-.04-2.58-.13-5.03-.13-2.03,0-4.02.04-5.54.13v-.34ZM126.11,35.16c-1.06-2.79-3.43-8.58-4.57-11.38l-4.91,11.38h9.47Z"/>
        <path class="cls-1" d="M138.75,47.34c4.19-.17,4.86-1.61,4.86-6.13v-16.83c0-4.31-.64-5.71-4.86-5.88v-.3h11.54c6.56,0,11.84,1.9,11.63,7.99-.08,2.96-2.37,5.67-5.96,6.81,1.18,2.2,2.41,4.48,4.23,7.15,3.72,5.37,6.39,7.06,9.18,7.19l-.04.3c-1.18.17-2.28.25-3.38.25-3.51,0-5.67-1.06-7.36-2.71-1.14-1.14-2.45-3.13-3.72-5.29-1.23-2.16-2.07-3.76-3.09-5.71-1.18,0-2.62-.04-3.72-.21v7.06c0,4.48.68,6.09,4.69,6.3v.3c-2.92-.08-4.48-.13-7.32-.13-2.66,0-3.89.04-6.68.13v-.3ZM154.86,32.07c1.52-1.18,2.32-3,2.32-5.67,0-4.57-2.32-7.78-9.01-7.78-.04,1.56-.13,2.88-.13,4.82v10.19c3,.08,5.28-.38,6.81-1.56Z"/>
        <path class="cls-1" d="M168.64,39.05c.08-5.33,4.44-8.37,9.13-8.75-3.81-.93-5.62-2.96-5.62-6.09.04-4.02,3.76-6.51,9.05-6.51,3.85,0,6.3,1.35,6.3,3.68,0,1.23-.93,1.99-2.28,2.2-.38-2.71-1.65-5.45-4.23-5.45-2.88,0-4.4,2.41-4.4,5.79.04,4.02,2.45,6.13,6.39,6.3l.17.51c-5.08.04-9.51,2.62-9.56,8.29-.09,5.41,2.71,8.71,7.82,8.71,5.54,0,8.92-4.27,8.97-8.96.04-2.83-.76-5.84-3.43-5.84-1.95,0-2.79,1.61-2.79,3.34,0,1.4.42,2.58,1.27,3.3-.42.25-.93.38-1.44.38-1.56,0-2.79-.8-2.79-2.75-.04-2.58,2.58-3.76,4.74-5.16,2.88-1.86,4.4-3.51,4.36-5.71,0-1.06-.64-1.82-1.48-2.16.42-.59,1.35-.8,1.9-.8,1.65,0,2.88,1.06,2.88,2.71,0,1.78-1.1,2.79-2.75,3.81-1.06.8-3.6,1.9-5.2,2.88.68-.21,1.31-.25,1.95-.25,4.14,0,6.43,2.79,6.43,6.22,0,5.96-6.13,9.43-12.69,9.43-7.53,0-12.77-2.83-12.68-9.09Z"/>
        <path class="cls-1" d="M200.3,47.38c-2.2-.59-2.83-1.44-2.96-3-.04-.89-.08-1.82.25-6.56h.3c.72,6.6,4.31,9.9,8.29,9.9,3.89,0,6.43-2.58,6.47-6.56.04-3.55-2.37-5.37-6.3-6.39-4.48-1.18-8.63-3.13-8.58-8.88.04-5.12,3.8-8.2,10.06-8.2,1.73,0,3.3.21,4.65.55,2.03.47,2.49,1.4,2.71,2.92.08.76.08,1.82-.04,5.71h-.3c-.63-4.36-2.92-8.75-7.19-8.75s-5.84,2.88-5.84,6c0,4.02,2.45,5.54,5.96,6.47,5.88,1.56,8.8,3.85,8.75,8.75,0,5.5-4.31,8.79-10.53,8.79-1.99,0-4.14-.34-5.71-.76Z"/>
        <path class="cls-1" d="M220.04,47.34c4.14-.17,4.86-1.56,4.86-6.22v-16.7c0-4.95-1.1-5.67-4.86-5.92v-.3c2.92.08,6.6.17,10.83.13,3.93-.04,6.56-.08,10.66-.21.64.8.55,2.41.47,4.02l-.17,3.51h-.25c-1.31-5.75-3.51-6.77-11.12-6.89h-.97c-.04.55-.13,2.71-.13,3.93v9.43s1.56,0,1.56,0c7.57-.04,7.91-.97,8.58-3.97h.25v9.09h-.3c-.47-3.59-.97-4.57-8.54-4.61h-1.56s0,9.13,0,9.13c0,4.31.76,5.24,5.2,5.24,5.29,0,7.91-2.71,9.26-7.74h.25c-.04,1.01-.25,3.76-.3,4.69-.21,2.11-.64,3.09-1.44,3.68-4.1-.08-6.05-.13-10.02-.13-4.82,0-7.27-.04-12.26.13v-.3Z"/>
        <path class="cls-1" d="M246.97,47.34c4.19-.17,4.86-1.61,4.86-6.13v-16.83c0-4.31-.64-5.71-4.86-5.88v-.3h11.54c6.56,0,11.84,1.9,11.63,7.99-.08,2.96-2.37,5.67-5.96,6.81,1.18,2.2,2.41,4.48,4.23,7.15,3.72,5.37,6.39,7.06,9.18,7.19l-.04.3c-1.18.17-2.28.25-3.38.25-3.51,0-5.67-1.06-7.36-2.71-1.14-1.14-2.45-3.13-3.72-5.29-1.23-2.16-2.07-3.76-3.09-5.71-1.18,0-2.62-.04-3.72-.21v7.06c0,4.48.68,6.09,4.69,6.3v.3c-2.92-.08-4.48-.13-7.32-.13-2.66,0-3.89.04-6.68.13v-.3ZM263.08,32.07c1.52-1.18,2.32-3,2.32-5.67,0-4.57-2.32-7.78-9.01-7.78-.04,1.56-.13,2.88-.13,4.82v10.19c3,.08,5.28-.38,6.81-1.56Z"/>
        <path class="cls-1" d="M278.98,24.63c-2.07-4.69-2.92-5.92-6.47-6.13v-.3c2.45.04,4.82.13,7.15.13,2.75,0,4.57,0,7.44-.13v.3c-3.68.13-5.03,1.31-3.76,4.61,2.37,6.3,5.67,14.38,7.57,18.56,1.57-3.68,4.27-10.19,6.98-17.34,1.65-4.27.47-5.67-3.72-5.84v-.3c1.95.04,2.28.13,4.65.13,2.2,0,3.76,0,5.83-.13v.3c-2.71.3-3.93,1.4-5.5,5.03-3.34,7.78-8.16,18.99-10.11,24.44l-.25.08c-2.49-6.26-7.23-17.63-9.81-23.43Z"/>
        <path class="cls-1" d="M305.73,47.34c4.14-.17,4.86-1.56,4.86-6.22v-16.7c0-4.95-1.1-5.67-4.86-5.92v-.3c2.92.08,6.6.17,10.83.13,3.93-.04,6.56-.08,10.66-.21.64.8.55,2.41.47,4.02l-.17,3.51h-.25c-1.31-5.75-3.51-6.77-11.12-6.89h-.97c-.04.55-.13,2.71-.13,3.93v9.43s1.56,0,1.56,0c7.57-.04,7.91-.97,8.58-3.97h.25v9.09h-.3c-.47-3.59-.97-4.57-8.54-4.61h-1.56s0,9.13,0,9.13c0,4.31.76,5.24,5.2,5.24,5.29,0,7.91-2.71,9.26-7.74h.25c-.04,1.01-.25,3.76-.3,4.69-.21,2.11-.64,3.09-1.44,3.68-4.1-.08-6.05-.13-10.02-.13-4.82,0-7.27-.04-12.26.13v-.3Z"/>
      </g>
      <g>
        <path class="cls-2" d="M6.69,0S0,4.9,0,14.71c0,8.34,5.3,13,7.14,14.47,1.84,1.47,18.94,8.67,20.97,9.5,2.03.83,5.24,2.41,8.07,4.66,3.17,2.51,3.36,3.36,3.73,4.24s.46,2.03.46,2.03c0,0,2.77-3.87,2.77-9.45,0-5.58-1.94-8.16-3.92-10.74-1.98-2.58-7.1-5.72-11.8-7.93-4.7-2.21-15.03-6.96-17.15-8.2-2.12-1.24-5.92-4.46-6.22-6.91C3.64,2.96,6.69,0,6.69,0Z"/>
        <path class="cls-2" d="M6.69,22.4S0,27.29,0,37.11c0,8.34,5.3,13,7.14,14.47,1.84,1.47,18.94,8.67,20.97,9.5,2.03.83,5.24,2.41,8.07,4.66,3.17,2.51,3.36,3.36,3.73,4.24s.46,2.03.46,2.03c0,0,2.77-3.87,2.77-9.45,0-5.58-1.94-8.16-3.92-10.74s-7.1-5.72-11.8-7.93c-4.7-2.21-15.03-6.96-17.15-8.2-2.12-1.24-5.92-4.46-6.22-6.91-.41-3.41,2.64-6.37,2.64-6.37Z"/>
        <path class="cls-2" d="M36.61,10.86s0,0,0,0c-.22.88-.73,1.65-1.42,2.19-.69.55-1.56.87-2.51.87-2.23,0-4.05-1.81-4.05-4.05,0-.94.32-1.8.85-2.48,0,0,0,0,0,0,.24-.31.52-.58.84-.81.11-.08.21-.16.3-.25,1.02-1.02,2.36-2.56,2.36-3.68,0-1.75-1.16-2.61-1.23-2.66.07.04,1.25.74,2.4,1.91,1.19,1.21,2.62,3.39,2.85,5.13.23,1.7-.37,3.71-.4,3.82Z"/>
      </g>
    </g>
  </g>
</svg>