<?xml version="1.0" encoding="UTF-8"?>
<svg id="Layer_2" data-name="Layer 2" xmlns="http://www.w3.org/2000/svg" viewBox="0 0 169.3 81.39">
  <defs>
    <style>
      .cls-1 {
        fill: #fff;
      }

      .cls-2 {
        fill: #ee3124;
      }
    </style>
  </defs>
  <g id="Content">
    <g>
      <g>
        <path class="cls-1" d="M66.51,39.25c-1.71-.46-2.21-1.12-2.31-2.34-.03-.69-.07-1.42.2-5.11h.23c.56,5.14,3.36,7.72,6.46,7.72s5.01-2.01,5.05-5.11c.03-2.77-1.85-4.19-4.91-4.98-3.5-.92-6.73-2.44-6.7-6.93.03-3.99,2.97-6.4,7.85-6.4,1.35,0,2.57.17,3.63.43,1.58.36,1.95,1.09,2.11,2.28.07.59.07,1.42-.03,4.45h-.23c-.49-3.4-2.28-6.83-5.61-6.83s-4.55,2.24-4.55,4.68c0,3.13,1.91,4.32,4.65,5.05,4.58,1.22,6.86,3,6.83,6.83,0,4.29-3.36,6.86-8.21,6.86-1.55,0-3.23-.26-4.45-.59Z"/>
        <path class="cls-1" d="M81.15,39.22c3.23-.13,3.79-1.22,3.79-4.85v-13.03c0-3.86-.86-4.42-3.79-4.62v-.23c2.28.07,5.14.13,8.44.1,3.07-.03,5.11-.07,8.31-.17.5.63.43,1.88.36,3.13l-.13,2.74h-.2c-1.02-4.49-2.74-5.28-8.67-5.38h-.76c-.03.43-.1,2.11-.1,3.07v7.36h1.22c5.9-.03,6.17-.76,6.7-3.1h.2v7.09h-.23c-.36-2.8-.76-3.56-6.66-3.6h-1.22v7.12c0,3.36.59,4.09,4.06,4.09,4.12,0,6.17-2.11,7.22-6.04h.2c-.03.79-.2,2.94-.23,3.66-.16,1.65-.49,2.41-1.12,2.87-3.2-.07-4.72-.1-7.82-.1-3.76,0-5.67-.03-9.56.1v-.23Z"/>
        <path class="cls-1" d="M100.64,39.18c2.11-.17,3-.99,4.25-3.73,2.08-4.45,6.46-14.15,8.51-19.23l.16-.07c1.65,4.58,5.01,12.73,7.42,18.44,1.42,3.33,1.98,4.35,4.22,4.62v.23c-1.62-.07-3.3-.1-5.14-.1-2.18,0-3.93.03-5.44.1v-.23c2.67-.2,3.83-.92,3-3.5-.56-1.71-1.52-4.09-2.08-5.57h-7.75c-.16.36-.99,2.31-1.81,4.75-1.12,3.33.03,4.22,2.9,4.32v.23c-1.19-.03-2.01-.1-3.92-.1-1.58,0-3.13.03-4.32.1v-.26ZM115.35,29.72c-.82-2.18-2.67-6.7-3.56-8.87l-3.83,8.87h7.39Z"/>
        <path class="cls-1" d="M125.7,39.22c3.27-.13,3.79-1.25,3.79-4.78v-13.13c0-3.36-.49-4.45-3.79-4.58v-.23h9c5.11,0,9.24,1.48,9.07,6.23-.07,2.31-1.85,4.42-4.65,5.31.92,1.71,1.88,3.5,3.3,5.57,2.9,4.19,4.98,5.51,7.16,5.61l-.03.23c-.92.13-1.78.2-2.64.2-2.74,0-4.42-.82-5.74-2.11-.89-.89-1.91-2.44-2.9-4.12-.96-1.68-1.62-2.94-2.41-4.45-.92,0-2.05-.03-2.9-.17v5.51c0,3.5.53,4.75,3.66,4.91v.23c-2.28-.07-3.5-.1-5.71-.1-2.08,0-3.03.03-5.21.1v-.23ZM138.27,27.31c1.19-.92,1.81-2.34,1.81-4.42,0-3.56-1.81-6.07-7.03-6.07-.03,1.22-.1,2.24-.1,3.76v7.95c2.34.07,4.12-.3,5.31-1.22Z"/>
        <path class="cls-1" d="M149.51,32.75c.07-4.16,3.46-6.53,7.12-6.83-2.97-.73-4.39-2.31-4.39-4.75.03-3.13,2.94-5.08,7.06-5.08,3,0,4.91,1.06,4.91,2.87,0,.96-.73,1.55-1.78,1.71-.3-2.11-1.29-4.25-3.3-4.25-2.24,0-3.43,1.88-3.43,4.52.03,3.13,1.91,4.78,4.98,4.91l.13.4c-3.96.03-7.42,2.04-7.45,6.46-.07,4.22,2.11,6.79,6.1,6.79,4.32,0,6.96-3.33,6.99-6.99.03-2.21-.59-4.55-2.67-4.55-1.52,0-2.18,1.25-2.18,2.61,0,1.09.33,2.01.99,2.57-.33.2-.73.3-1.12.3-1.22,0-2.18-.63-2.18-2.14-.03-2.01,2.01-2.94,3.69-4.02,2.24-1.45,3.43-2.74,3.4-4.45,0-.82-.49-1.42-1.15-1.68.33-.46,1.06-.63,1.48-.63,1.29,0,2.24.82,2.24,2.11,0,1.39-.86,2.18-2.14,2.97-.82.63-2.8,1.48-4.06,2.24.53-.17,1.02-.2,1.52-.2,3.23,0,5.01,2.18,5.01,4.85,0,4.65-4.78,7.36-9.89,7.36-5.87,0-9.96-2.21-9.89-7.09Z"/>
      </g>
      <g>
        <path class="cls-1" d="M66.51,67.14c-1.71-.46-2.21-1.12-2.31-2.34-.03-.69-.07-1.42.2-5.11h.23c.56,5.14,3.36,7.72,6.46,7.72s5.01-2.01,5.04-5.11c.03-2.77-1.85-4.19-4.91-4.98-3.49-.92-6.73-2.44-6.69-6.92.03-3.99,2.97-6.4,7.85-6.4,1.35,0,2.57.17,3.63.43,1.58.36,1.95,1.09,2.11,2.27.07.59.07,1.42-.03,4.45h-.23c-.49-3.4-2.28-6.83-5.61-6.83s-4.55,2.24-4.55,4.68c0,3.13,1.91,4.32,4.65,5.05,4.58,1.22,6.86,3,6.83,6.82,0,4.29-3.36,6.86-8.21,6.86-1.55,0-3.23-.26-4.45-.59Z"/>
        <path class="cls-1" d="M82.37,67.1c3.23-.13,3.79-1.22,3.79-4.85v-13.02c0-3.86-.86-4.42-3.79-4.62v-.23c2.28.07,5.14.13,8.44.1,3.07-.03,5.11-.07,8.31-.17.49.63.43,1.88.36,3.13l-.13,2.74h-.2c-1.02-4.48-2.74-5.28-8.67-5.37h-.76c-.03.43-.1,2.11-.1,3.07v7.35h1.22c5.9-.03,6.17-.76,6.69-3.1h.2v7.09h-.23c-.36-2.8-.76-3.56-6.66-3.59h-1.22v7.12c0,3.36.59,4.09,4.06,4.09,4.12,0,6.17-2.11,7.22-6.03h.2c-.03.79-.2,2.93-.23,3.66-.16,1.65-.49,2.41-1.12,2.87-3.2-.07-4.71-.1-7.81-.1-3.76,0-5.67-.03-9.56.1v-.23Z"/>
        <path class="cls-1" d="M103.83,67.1c3.26-.13,3.79-1.25,3.79-4.78v-13.12c0-3.36-.49-4.45-3.79-4.58v-.23h9c5.11,0,9.23,1.48,9.07,6.23-.07,2.31-1.85,4.42-4.65,5.31.92,1.71,1.88,3.49,3.3,5.57,2.9,4.19,4.98,5.51,7.15,5.61l-.03.23c-.92.13-1.78.2-2.64.2-2.74,0-4.42-.82-5.74-2.11-.89-.89-1.91-2.44-2.9-4.12-.96-1.68-1.62-2.93-2.41-4.45-.92,0-2.04-.03-2.9-.17v5.51c0,3.49.53,4.75,3.66,4.91v.23c-2.28-.07-3.5-.1-5.7-.1-2.08,0-3.03.03-5.21.1v-.23ZM116.39,55.2c1.19-.92,1.81-2.34,1.81-4.42,0-3.56-1.81-6.07-7.02-6.07-.03,1.22-.1,2.24-.1,3.76v7.95c2.34.07,4.12-.3,5.31-1.22Z"/>
        <path class="cls-1" d="M129.25,49.4c-1.62-3.66-2.28-4.62-5.05-4.78v-.23c1.91.03,3.76.1,5.57.1,2.14,0,3.56,0,5.8-.1v.23c-2.87.1-3.92,1.02-2.93,3.59,1.85,4.91,4.42,11.21,5.9,14.47,1.22-2.87,3.33-7.95,5.44-13.52,1.29-3.33.36-4.42-2.9-4.55v-.23c1.52.03,1.78.1,3.63.1,1.71,0,2.93,0,4.55-.1v.23c-2.11.23-3.07,1.09-4.29,3.92-2.6,6.07-6.36,14.8-7.88,19.06l-.2.07c-1.95-4.88-5.64-13.75-7.65-18.27Z"/>
        <path class="cls-1" d="M150.57,67.1c3.23-.13,3.79-1.22,3.79-4.85v-13.02c0-3.86-.86-4.42-3.79-4.62v-.23c2.28.07,5.14.13,8.44.1,3.07-.03,5.11-.07,8.31-.17.49.63.43,1.88.36,3.13l-.13,2.74h-.2c-1.02-4.48-2.74-5.28-8.67-5.37h-.76c-.03.43-.1,2.11-.1,3.07v7.35h1.22c5.9-.03,6.17-.76,6.69-3.1h.2v7.09h-.23c-.36-2.8-.76-3.56-6.66-3.59h-1.22v7.12c0,3.36.59,4.09,4.06,4.09,4.12,0,6.17-2.11,7.22-6.03h.2c-.03.79-.2,2.93-.23,3.66-.16,1.65-.49,2.41-1.12,2.87-3.2-.07-4.71-.1-7.81-.1-3.76,0-5.67-.03-9.56.1v-.23Z"/>
      </g>
      <g>
        <path class="cls-2" d="M7.57,0S0,5.54,0,16.63c0,9.43,5.99,14.69,8.08,16.36,2.08,1.67,21.41,9.8,23.71,10.73,2.29.94,5.92,2.73,9.12,5.26,3.58,2.84,3.8,3.8,4.22,4.79s.52,2.29.52,2.29c0,0,3.13-4.38,3.13-10.68s-2.19-9.22-4.43-12.14-8.02-6.46-13.34-8.96c-5.31-2.5-16.99-7.87-19.38-9.27s-6.7-5.04-7.03-7.82c-.47-3.86,2.98-7.2,2.98-7.2Z"/>
        <path class="cls-2" d="M7.57,25.32S0,30.85,0,41.95c0,9.43,5.99,14.69,8.08,16.36s21.41,9.8,23.71,10.73,5.92,2.73,9.12,5.26c3.58,2.84,3.8,3.8,4.22,4.79s.52,2.29.52,2.29c0,0,3.13-4.38,3.13-10.68s-2.19-9.22-4.43-12.14c-2.24-2.92-8.02-6.46-13.34-8.96-5.31-2.5-16.99-7.87-19.38-9.27s-6.7-5.04-7.03-7.82c-.47-3.86,2.98-7.2,2.98-7.2Z"/>
        <path class="cls-2" d="M41.39,12.28s0,0,0,0c-.25.99-.82,1.86-1.6,2.48-.78.62-1.76.99-2.84.99-2.53,0-4.57-2.05-4.57-4.58,0-1.06.36-2.03.96-2.81,0,0,0,0,0,0,.27-.35.59-.66.95-.91.12-.09.24-.18.34-.28,1.16-1.15,2.67-2.9,2.67-4.16C37.29,1.02,35.98.06,35.9,0c.08.05,1.41.83,2.72,2.16,1.35,1.37,2.96,3.83,3.22,5.8.26,1.92-.42,4.2-.45,4.31Z"/>
      </g>
    </g>
  </g>
</svg>